<svg width="315" height="527" viewBox="0 0 315 527" fill="none" xmlns="http://www.w3.org/2000/svg">
<g clip-path="url(#clip0_33_207)">
<path d="M301.265 0H13.7355C6.14958 0 0 6.14443 0 13.724V513.276C0 520.856 6.14958 527 13.7355 527H301.265C308.85 527 315 520.856 315 513.276V13.724C315 6.14443 308.85 0 301.265 0Z" fill="white"/>
<path d="M205.594 492.119C219.74 492.119 231.208 483.542 231.208 472.962C231.208 462.382 219.74 453.806 205.594 453.806C191.448 453.806 179.98 462.382 179.98 472.962C179.98 483.542 191.448 492.119 205.594 492.119Z" fill="#E16162"/>
<path d="M98.0749 511.538C108.767 511.538 117.435 504.606 117.435 496.055C117.435 487.504 108.767 480.572 98.0749 480.572C87.3829 480.572 78.7153 487.504 78.7153 496.055C78.7153 504.606 87.3829 511.538 98.0749 511.538Z" fill="#ABD1C6"/>
<path d="M116.243 468.501C122.494 468.501 127.561 465.211 127.561 461.153C127.561 457.095 122.494 453.806 116.243 453.806C109.993 453.806 104.925 457.095 104.925 461.153C104.925 465.211 109.993 468.501 116.243 468.501Z" fill="#F9BC60"/>
<g filter="url(#filter0_bd_33_207)">
<path d="M214.685 453.806H100.315C84.359 453.806 71.4243 466.729 71.4243 482.672C71.4243 498.614 84.359 511.538 100.315 511.538H214.685C230.641 511.538 243.575 498.614 243.575 482.672C243.575 466.729 230.641 453.806 214.685 453.806Z" fill="#CACACA" fill-opacity="0.4"/>
</g>
<path d="M278.372 83.2587H35.7123C28.1264 83.2587 21.9768 89.4031 21.9768 96.9826V107.047C21.9768 114.626 28.1264 120.771 35.7123 120.771H278.372C285.958 120.771 292.108 114.626 292.108 107.047V96.9826C292.108 89.4031 285.958 83.2587 278.372 83.2587Z" fill="#F4F4F4"/>
<path d="M275.625 171.092H32.9652C25.3793 171.092 19.2297 177.236 19.2297 184.816V358.653C19.2297 366.232 25.3793 372.377 32.9652 372.377H275.625C283.211 372.377 289.361 366.232 289.361 358.653V184.816C289.361 177.236 283.211 171.092 275.625 171.092Z" fill="#F4F4F4"/>
<path d="M178.14 195.795L175.116 191.692L176.081 191.097L179.497 195.795H178.14ZM172.533 195.795V187.469H173.7V195.795H172.533ZM173.343 192.132V191.085H176.045V192.132H173.343ZM176.188 191.763L175.093 191.596L178.08 187.469H179.354L176.188 191.763ZM185.072 195.795V194.463L185.012 194.213V191.941C185.012 191.457 184.869 191.085 184.584 190.823C184.306 190.553 183.886 190.419 183.322 190.419C182.949 190.419 182.584 190.482 182.227 190.609C181.87 190.728 181.568 190.891 181.322 191.097L180.846 190.241C181.172 189.979 181.56 189.78 182.012 189.646C182.473 189.503 182.953 189.432 183.453 189.432C184.318 189.432 184.985 189.642 185.453 190.062C185.922 190.482 186.155 191.124 186.155 191.989V195.795H185.072ZM183.001 195.866C182.533 195.866 182.12 195.787 181.763 195.629C181.414 195.47 181.144 195.252 180.953 194.974C180.763 194.689 180.667 194.368 180.667 194.011C180.667 193.67 180.747 193.36 180.905 193.083C181.072 192.806 181.339 192.584 181.703 192.417C182.077 192.251 182.577 192.167 183.203 192.167H185.203V192.988H183.251C182.679 192.988 182.295 193.083 182.096 193.274C181.898 193.464 181.798 193.694 181.798 193.963C181.798 194.273 181.922 194.522 182.167 194.713C182.414 194.895 182.755 194.986 183.191 194.986C183.62 194.986 183.993 194.891 184.31 194.701C184.636 194.511 184.869 194.233 185.012 193.868L185.239 194.653C185.088 195.026 184.822 195.323 184.441 195.545C184.06 195.759 183.58 195.866 183.001 195.866ZM190.059 195.795V190.193L190.344 190.49H187.749V189.491H193.511V190.49H190.928L191.202 190.193V195.795H190.059ZM197.805 195.866C197.13 195.866 196.535 195.727 196.019 195.45C195.511 195.173 195.114 194.792 194.829 194.308C194.551 193.824 194.412 193.27 194.412 192.643C194.412 192.016 194.547 191.462 194.817 190.978C195.094 190.494 195.471 190.118 195.948 189.848C196.432 189.571 196.975 189.432 197.578 189.432C198.189 189.432 198.729 189.566 199.197 189.836C199.665 190.106 200.031 190.487 200.293 190.978C200.563 191.462 200.697 192.028 200.697 192.679C200.697 192.726 200.694 192.782 200.685 192.845C200.685 192.909 200.682 192.968 200.673 193.024H195.305V192.203H200.078L199.614 192.489C199.622 192.084 199.539 191.724 199.364 191.406C199.189 191.089 198.947 190.844 198.638 190.669C198.337 190.487 197.983 190.395 197.578 190.395C197.182 190.395 196.828 190.487 196.519 190.669C196.209 190.844 195.968 191.093 195.793 191.418C195.618 191.736 195.531 192.1 195.531 192.512V192.703C195.531 193.123 195.626 193.5 195.817 193.833C196.015 194.157 196.289 194.412 196.638 194.594C196.987 194.776 197.388 194.867 197.84 194.867C198.213 194.867 198.551 194.804 198.852 194.677C199.162 194.55 199.432 194.36 199.662 194.106L200.293 194.844C200.007 195.177 199.65 195.43 199.221 195.605C198.801 195.78 198.328 195.866 197.805 195.866ZM203.065 195.795V189.491H207.708V190.49H203.934L204.208 190.229V195.795H203.065ZM211.896 195.866C211.262 195.866 210.698 195.727 210.206 195.45C209.714 195.173 209.325 194.792 209.039 194.308C208.754 193.817 208.611 193.262 208.611 192.643C208.611 192.016 208.754 191.462 209.039 190.978C209.325 190.494 209.714 190.118 210.206 189.848C210.698 189.571 211.262 189.432 211.896 189.432C212.524 189.432 213.083 189.571 213.575 189.848C214.075 190.118 214.464 190.494 214.741 190.978C215.027 191.454 215.17 192.009 215.17 192.643C215.17 193.27 215.027 193.824 214.741 194.308C214.464 194.792 214.075 195.173 213.575 195.45C213.083 195.727 212.524 195.866 211.896 195.866ZM211.896 194.867C212.301 194.867 212.662 194.776 212.98 194.594C213.305 194.412 213.559 194.154 213.741 193.821C213.924 193.479 214.015 193.087 214.015 192.643C214.015 192.191 213.924 191.802 213.741 191.478C213.559 191.145 213.305 190.887 212.98 190.704C212.662 190.522 212.301 190.431 211.896 190.431C211.492 190.431 211.131 190.522 210.813 190.704C210.495 190.887 210.242 191.145 210.051 191.478C209.861 191.802 209.765 192.191 209.765 192.643C209.765 193.087 209.861 193.479 210.051 193.821C210.242 194.154 210.495 194.412 210.813 194.594C211.131 194.776 211.492 194.867 211.896 194.867ZM220.76 195.866C220.236 195.866 219.757 195.748 219.32 195.51C218.891 195.264 218.546 194.903 218.284 194.427C218.031 193.952 217.903 193.357 217.903 192.643C217.903 191.93 218.027 191.335 218.272 190.859C218.527 190.383 218.868 190.026 219.296 189.789C219.733 189.551 220.221 189.432 220.76 189.432C221.379 189.432 221.927 189.566 222.403 189.836C222.879 190.106 223.256 190.482 223.534 190.966C223.812 191.442 223.951 192.001 223.951 192.643C223.951 193.285 223.812 193.848 223.534 194.332C223.256 194.816 222.879 195.192 222.403 195.462C221.927 195.732 221.379 195.866 220.76 195.866ZM217.415 198.103V189.491H218.51V191.192L218.439 192.655L218.558 194.118V198.103H217.415ZM220.665 194.867C221.07 194.867 221.431 194.776 221.748 194.594C222.074 194.412 222.328 194.154 222.51 193.821C222.701 193.479 222.796 193.087 222.796 192.643C222.796 192.191 222.701 191.802 222.51 191.478C222.328 191.145 222.074 190.887 221.748 190.704C221.431 190.522 221.07 190.431 220.665 190.431C220.269 190.431 219.908 190.522 219.582 190.704C219.265 190.887 219.01 191.145 218.82 191.478C218.638 191.802 218.546 192.191 218.546 192.643C218.546 193.087 218.638 193.479 218.82 193.821C219.01 194.154 219.265 194.412 219.582 194.594C219.908 194.776 220.269 194.867 220.665 194.867ZM226.206 195.795V189.491H227.349V194.082L231.218 189.491H232.253V195.795H231.11V191.204L227.253 195.795H226.206ZM235.067 195.795V189.491H236.21V194.082L240.079 189.491H241.114V195.795H239.972V191.204L236.115 195.795H235.067Z" fill="black"/>
<path d="M34.7307 106.132V96.5251H38.7277C39.7442 96.5251 40.5408 96.7356 41.1177 97.1565C41.7037 97.5682 41.9968 98.1766 41.9968 98.9817C41.9968 99.7777 41.7175 100.382 41.1589 100.793C40.6003 101.196 39.8678 101.397 38.9612 101.397L39.1947 101.054C40.2661 101.054 41.0811 101.264 41.6396 101.685C42.1982 102.106 42.4775 102.724 42.4775 103.538C42.4775 104.362 42.1845 105.002 41.5984 105.459C41.0216 105.908 40.1516 106.132 38.9887 106.132H34.7307ZM35.7334 105.322H38.9887C39.8037 105.322 40.4218 105.171 40.843 104.869C41.2642 104.567 41.4748 104.101 41.4748 103.469C41.4748 102.847 41.2642 102.39 40.843 102.097C40.4218 101.804 39.8037 101.658 38.9887 101.658H35.7334V105.322ZM35.7334 100.876H38.6728C39.4145 100.876 39.9822 100.729 40.376 100.436C40.7789 100.135 40.9803 99.6908 40.9803 99.1053C40.9803 98.5197 40.7789 98.0805 40.376 97.7877C39.9822 97.4858 39.4145 97.3349 38.6728 97.3349H35.7334V100.876ZM44.4118 106.132V98.9268H47.5985C48.4134 98.9268 49.0544 99.0824 49.5214 99.3935C49.9976 99.7045 50.2357 100.162 50.2357 100.766C50.2357 101.351 50.0113 101.804 49.5626 102.125C49.1139 102.436 48.5233 102.591 47.7908 102.591L47.9831 102.303C48.8438 102.303 49.4756 102.463 49.8785 102.783C50.2815 103.103 50.4829 103.566 50.4829 104.169C50.4829 104.792 50.254 105.276 49.7961 105.624C49.3474 105.963 48.6469 106.132 47.6946 106.132H44.4118ZM45.3596 105.363H47.6534C48.2669 105.363 48.7293 105.267 49.0407 105.075C49.3612 104.874 49.5214 104.554 49.5214 104.114C49.5214 103.675 49.3795 103.355 49.0956 103.154C48.8118 102.953 48.3631 102.852 47.7496 102.852H45.3596V105.363ZM45.3596 102.125H47.5298C48.0884 102.125 48.5142 102.019 48.8072 101.809C49.1094 101.598 49.2605 101.292 49.2605 100.889C49.2605 100.487 49.1094 100.185 48.8072 99.9836C48.5142 99.7823 48.0884 99.6817 47.5298 99.6817H45.3596V102.125ZM55.4854 106.201C54.7345 106.201 54.0752 106.045 53.5075 105.734C52.9397 105.414 52.4956 104.979 52.1751 104.43C51.8546 103.872 51.6944 103.236 51.6944 102.523C51.6944 101.809 51.8455 101.178 52.1476 100.629C52.459 100.08 52.8802 99.6496 53.4113 99.3386C53.9516 99.0183 54.5559 98.8582 55.2244 98.8582C55.902 98.8582 56.5018 99.0138 57.0237 99.3248C57.5548 99.6268 57.9715 100.057 58.2737 100.615C58.5758 101.164 58.7269 101.8 58.7269 102.523C58.7269 102.568 58.7224 102.619 58.7132 102.673C58.7132 102.719 58.7132 102.77 58.7132 102.824H52.4361V102.097H58.1913L57.8067 102.385C57.8067 101.864 57.6922 101.402 57.4633 100.999C57.2435 100.587 56.9413 100.267 56.5567 100.038C56.1721 99.8097 55.728 99.6954 55.2244 99.6954C54.7299 99.6954 54.2858 99.8097 53.8921 100.038C53.4983 100.267 53.1915 100.587 52.9718 100.999C52.752 101.411 52.6421 101.882 52.6421 102.413V102.564C52.6421 103.113 52.7612 103.598 52.9992 104.018C53.2465 104.43 53.5853 104.755 54.0157 104.993C54.4552 105.222 54.9543 105.336 55.5128 105.336C55.9524 105.336 56.3599 105.258 56.7353 105.103C57.1199 104.947 57.4495 104.709 57.7242 104.389L58.2737 105.02C57.9532 105.405 57.5503 105.697 57.0649 105.899C56.5888 106.1 56.0623 106.201 55.4854 106.201ZM65.3092 105.665V99.7777H61.8342L61.7518 101.383C61.7334 101.868 61.7014 102.344 61.6556 102.811C61.619 103.277 61.5503 103.707 61.4496 104.101C61.358 104.485 61.2252 104.801 61.0512 105.048C60.8773 105.286 60.6529 105.423 60.3782 105.459L59.403 105.281C59.6869 105.29 59.9204 105.19 60.1035 104.979C60.2866 104.76 60.4286 104.462 60.5293 104.087C60.63 103.712 60.7033 103.286 60.7491 102.811C60.7949 102.326 60.8315 101.832 60.859 101.329L60.9551 98.9268H66.2845V105.665H65.3092ZM59.1008 107.875V105.281H67.4108V107.875H66.4905V106.132H60.0211V107.875H59.1008ZM68.9377 106.132V98.9268H69.9129V104.65L74.7341 98.9268H75.5994V106.132H74.6242V100.395L69.8168 106.132H68.9377ZM79.3942 106.132V99.517L79.6415 99.7777H76.6609V98.9268H83.1028V99.7777H80.1222L80.3694 99.517V106.132H79.3942ZM86.8943 106.201C86.1435 106.201 85.4842 106.045 84.9164 105.734C84.3487 105.414 83.9046 104.979 83.5841 104.43C83.2636 103.872 83.1034 103.236 83.1034 102.523C83.1034 101.809 83.2544 101.178 83.5566 100.629C83.868 100.08 84.2892 99.6496 84.8203 99.3386C85.3605 99.0183 85.9649 98.8582 86.6334 98.8582C87.311 98.8582 87.9108 99.0138 88.4327 99.3248C88.9638 99.6268 89.3805 100.057 89.6826 100.615C89.9848 101.164 90.1359 101.8 90.1359 102.523C90.1359 102.568 90.1313 102.619 90.1222 102.673C90.1222 102.719 90.1222 102.77 90.1222 102.824H83.8451V102.097H89.6002L89.2156 102.385C89.2156 101.864 89.1012 101.402 88.8723 100.999C88.6525 100.587 88.3503 100.267 87.9657 100.038C87.5811 99.8097 87.137 99.6954 86.6334 99.6954C86.1389 99.6954 85.6948 99.8097 85.301 100.038C84.9073 100.267 84.6005 100.587 84.3808 100.999C84.161 101.411 84.0511 101.882 84.0511 102.413V102.564C84.0511 103.113 84.1701 103.598 84.4082 104.018C84.6555 104.43 84.9943 104.755 85.4246 104.993C85.8642 105.222 86.3632 105.336 86.9218 105.336C87.3614 105.336 87.7688 105.258 88.1443 105.103C88.5289 104.947 88.8585 104.709 89.1332 104.389L89.6826 105.02C89.3622 105.405 88.9592 105.697 88.4739 105.899C87.9978 106.1 87.4712 106.201 86.8943 106.201ZM95.1419 106.132V98.9268H96.1172V102.111H100.664V98.9268H101.639V106.132H100.664V102.948H96.1172V106.132H95.1419ZM108.515 106.132V104.54L108.474 104.279V101.617C108.474 101.004 108.3 100.533 107.952 100.203C107.613 99.8738 107.105 99.7091 106.427 99.7091C105.96 99.7091 105.516 99.7869 105.095 99.9424C104.673 100.098 104.316 100.304 104.023 100.56L103.584 99.8326C103.95 99.5215 104.39 99.2837 104.902 99.119C105.415 98.9451 105.955 98.8582 106.523 98.8582C107.457 98.8582 108.176 99.0915 108.68 99.5581C109.192 100.016 109.449 100.716 109.449 101.658V106.132H108.515ZM106.029 106.201C105.488 106.201 105.017 106.114 104.614 105.94C104.22 105.757 103.918 105.51 103.707 105.199C103.497 104.878 103.391 104.512 103.391 104.101C103.391 103.726 103.478 103.387 103.652 103.085C103.836 102.774 104.129 102.527 104.532 102.344C104.944 102.152 105.493 102.056 106.18 102.056H108.666V102.783H106.207C105.511 102.783 105.026 102.907 104.751 103.154C104.486 103.401 104.353 103.707 104.353 104.073C104.353 104.485 104.513 104.814 104.834 105.061C105.154 105.308 105.603 105.432 106.18 105.432C106.729 105.432 107.201 105.308 107.595 105.061C107.997 104.805 108.29 104.439 108.474 103.964L108.693 104.636C108.51 105.112 108.19 105.491 107.732 105.775C107.283 106.059 106.715 106.201 106.029 106.201ZM113.46 106.214C114.056 106.214 114.591 106.123 115.068 105.94C115.553 105.757 115.937 105.505 116.221 105.185C116.505 104.856 116.647 104.476 116.647 104.046C116.647 103.497 116.414 103.062 115.947 102.742C115.489 102.422 114.848 102.262 114.024 102.262L113.982 102.523C114.449 102.523 114.866 102.449 115.232 102.303C115.599 102.157 115.892 101.951 116.111 101.685C116.331 101.42 116.441 101.109 116.441 100.752C116.441 100.35 116.304 100.006 116.029 99.7228C115.754 99.4301 115.383 99.2059 114.916 99.0504C114.459 98.8948 113.941 98.8262 113.364 98.8445C112.943 98.8445 112.522 98.904 112.101 99.0229C111.689 99.1327 111.272 99.2974 110.851 99.517L111.125 100.272C111.501 100.08 111.881 99.9378 112.265 99.8463C112.65 99.7457 113.021 99.6908 113.378 99.6817C113.772 99.6817 114.124 99.7274 114.436 99.8189C114.747 99.9104 114.99 100.048 115.164 100.231C115.347 100.414 115.438 100.633 115.438 100.889C115.438 101.127 115.361 101.333 115.205 101.507C115.058 101.681 114.848 101.813 114.573 101.905C114.298 101.996 113.982 102.042 113.625 102.042H112.458V102.756H113.694C114.298 102.756 114.774 102.866 115.122 103.085C115.47 103.296 115.644 103.593 115.644 103.977C115.644 104.243 115.553 104.48 115.37 104.691C115.187 104.901 114.93 105.066 114.601 105.185C114.271 105.304 113.882 105.368 113.433 105.377C112.984 105.377 112.531 105.313 112.073 105.185C111.615 105.048 111.212 104.851 110.864 104.595L110.549 105.322C110.942 105.624 111.396 105.848 111.908 105.995C112.421 106.141 112.939 106.214 113.46 106.214ZM118.488 106.132V98.9268H121.674C122.489 98.9268 123.13 99.0824 123.597 99.3935C124.073 99.7045 124.311 100.162 124.311 100.766C124.311 101.351 124.087 101.804 123.638 102.125C123.19 102.436 122.599 102.591 121.867 102.591L122.059 102.303C122.92 102.303 123.551 102.463 123.954 102.783C124.357 103.103 124.559 103.566 124.559 104.169C124.559 104.792 124.33 105.276 123.872 105.624C123.423 105.963 122.723 106.132 121.77 106.132H118.488ZM119.435 105.363H121.729C122.343 105.363 122.805 105.267 123.117 105.075C123.437 104.874 123.597 104.554 123.597 104.114C123.597 103.675 123.455 103.355 123.171 103.154C122.888 102.953 122.439 102.852 121.825 102.852H119.435V105.363ZM119.435 102.125H121.606C122.164 102.125 122.59 102.019 122.883 101.809C123.185 101.598 123.336 101.292 123.336 100.889C123.336 100.487 123.185 100.185 122.883 99.9836C122.59 99.7823 122.164 99.6817 121.606 99.6817H119.435V102.125ZM130.948 106.132V104.54L130.907 104.279V101.617C130.907 101.004 130.733 100.533 130.385 100.203C130.047 99.8738 129.538 99.7091 128.861 99.7091C128.394 99.7091 127.95 99.7869 127.528 99.9424C127.107 100.098 126.75 100.304 126.457 100.56L126.017 99.8326C126.384 99.5215 126.823 99.2837 127.336 99.119C127.849 98.9451 128.389 98.8582 128.957 98.8582C129.891 98.8582 130.61 99.0915 131.113 99.5581C131.626 100.016 131.882 100.716 131.882 101.658V106.132H130.948ZM128.462 106.201C127.922 106.201 127.451 106.114 127.048 105.94C126.654 105.757 126.352 105.51 126.141 105.199C125.93 104.878 125.825 104.512 125.825 104.101C125.825 103.726 125.912 103.387 126.086 103.085C126.269 102.774 126.562 102.527 126.965 102.344C127.377 102.152 127.927 102.056 128.613 102.056H131.1V102.783H128.641C127.945 102.783 127.46 102.907 127.185 103.154C126.919 103.401 126.787 103.707 126.787 104.073C126.787 104.485 126.947 104.814 127.267 105.061C127.588 105.308 128.037 105.432 128.613 105.432C129.163 105.432 129.634 105.308 130.028 105.061C130.431 104.805 130.724 104.439 130.907 103.964L131.127 104.636C130.944 105.112 130.623 105.491 130.166 105.775C129.717 106.059 129.149 106.201 128.462 106.201ZM134.105 106.132V98.9268H135.08V102.111H139.627V98.9268H140.602V106.132H139.627V102.948H135.08V106.132H134.105ZM143 106.132V98.9268H143.975V104.65L148.796 98.9268H149.662V106.132H148.686V100.395L143.879 106.132H143ZM155.173 106.201C154.422 106.201 153.763 106.045 153.195 105.734C152.628 105.414 152.183 104.979 151.863 104.43C151.542 103.872 151.382 103.236 151.382 102.523C151.382 101.809 151.533 101.178 151.836 100.629C152.147 100.08 152.568 99.6496 153.099 99.3386C153.639 99.0183 154.244 98.8582 154.912 98.8582C155.59 98.8582 156.19 99.0138 156.712 99.3248C157.243 99.6268 157.659 100.057 157.962 100.615C158.264 101.164 158.415 101.8 158.415 102.523C158.415 102.568 158.41 102.619 158.401 102.673C158.401 102.719 158.401 102.77 158.401 102.824H152.124V102.097H157.879L157.495 102.385C157.495 101.864 157.38 101.402 157.151 100.999C156.931 100.587 156.629 100.267 156.245 100.038C155.86 99.8097 155.416 99.6954 154.912 99.6954C154.418 99.6954 153.974 99.8097 153.58 100.038C153.186 100.267 152.879 100.587 152.66 100.999C152.44 101.411 152.33 101.882 152.33 102.413V102.564C152.33 103.113 152.449 103.598 152.687 104.018C152.934 104.43 153.273 104.755 153.704 104.993C154.143 105.222 154.642 105.336 155.201 105.336C155.64 105.336 156.048 105.258 156.423 105.103C156.808 104.947 157.137 104.709 157.412 104.389L157.962 105.02C157.641 105.405 157.238 105.697 156.753 105.899C156.277 106.1 155.75 106.201 155.173 106.201Z" fill="black" fill-opacity="0.5"/>
<path d="M111.036 32.9375L106.696 26.6977L108.619 25.5082L113.729 32.9375H111.036ZM102.557 32.9375V20.1285H104.901V32.9375H102.557ZM104.187 27.5394V25.4899H108.509V27.5394H104.187ZM108.839 26.8074L106.659 26.5147L111.036 20.1285H113.564L108.839 26.8074ZM118.948 33.0656C117.947 33.0656 117.056 32.8521 116.274 32.4251C115.493 31.986 114.877 31.3882 114.425 30.6319C113.973 29.8755 113.747 29.0155 113.747 28.0518C113.747 27.0758 113.973 26.2158 114.425 25.4717C114.877 24.7153 115.493 24.1237 116.274 23.6967C117.056 23.2697 117.947 23.0562 118.948 23.0562C119.962 23.0562 120.859 23.2697 121.64 23.6967C122.434 24.1237 123.05 24.7092 123.49 25.4534C123.942 26.1975 124.168 27.0636 124.168 28.0518C124.168 29.0155 123.942 29.8755 123.49 30.6319C123.05 31.3882 122.434 31.986 121.64 32.4251C120.859 32.8521 119.962 33.0656 118.948 33.0656ZM118.948 31.1076C119.51 31.1076 120.01 30.9857 120.45 30.7416C120.889 30.4976 121.232 30.1439 121.475 29.6803C121.732 29.2167 121.86 28.6739 121.86 28.0518C121.86 27.4174 121.732 26.8745 121.475 26.4232C121.232 25.9596 120.889 25.6059 120.45 25.3619C120.01 25.1178 119.516 24.9959 118.966 24.9959C118.405 24.9959 117.904 25.1178 117.465 25.3619C117.038 25.6059 116.695 25.9596 116.439 26.4232C116.183 26.8745 116.055 27.4174 116.055 28.0518C116.055 28.6739 116.183 29.2167 116.439 29.6803C116.695 30.1439 117.038 30.4976 117.465 30.7416C117.904 30.9857 118.399 31.1076 118.948 31.1076ZM126.056 32.9375V23.166H128.455L132.392 30.1012H131.44L135.579 23.166H137.722L137.74 32.9375H135.671V25.618L136.037 25.8559L132.374 31.9128H131.385L127.704 25.6912L128.144 25.5814V32.9375H126.056ZM140.437 32.9375V23.166H142.726V27.1368H147.652V23.166H149.942V32.9375H147.652V29.0765H142.726V32.9375H140.437ZM158.57 32.9375V30.9612L158.442 30.5404V27.0819C158.442 26.411 158.241 25.8925 157.838 25.5265C157.435 25.1484 156.824 24.9593 156.006 24.9593C155.457 24.9593 154.913 25.0447 154.376 25.2155C153.851 25.3863 153.406 25.6242 153.04 25.9291L152.142 24.2639C152.667 23.8614 153.29 23.5625 154.01 23.3673C154.743 23.1599 155.499 23.0562 156.281 23.0562C157.697 23.0562 158.79 23.3978 159.559 24.081C160.34 24.7519 160.731 25.7949 160.731 27.21V32.9375H158.57ZM155.494 33.0656C154.761 33.0656 154.12 32.9436 153.571 32.6996C153.021 32.4434 152.594 32.0957 152.289 31.6566C151.996 31.2052 151.849 30.6989 151.849 30.1378C151.849 29.5888 151.977 29.0948 152.234 28.6556C152.502 28.2164 152.935 27.8688 153.534 27.6126C154.132 27.3564 154.926 27.2283 155.915 27.2283H158.753V28.7471H156.08C155.298 28.7471 154.773 28.8752 154.505 29.1314C154.235 29.3754 154.102 29.6803 154.102 30.0463C154.102 30.461 154.267 30.7904 154.596 31.0344C154.926 31.2784 155.384 31.4004 155.97 31.4004C156.531 31.4004 157.032 31.2723 157.472 31.0161C157.923 30.76 158.246 30.3818 158.442 29.8816L158.827 31.254C158.607 31.8274 158.21 32.2726 157.636 32.5898C157.074 32.907 156.36 33.0656 155.494 33.0656ZM165.223 32.9375V24.5567L165.754 25.1057H161.78V23.166H170.937V25.1057H166.981L167.512 24.5567V32.9375H165.223ZM178.158 32.9375V30.9612L178.03 30.5404V27.0819C178.03 26.411 177.828 25.8925 177.425 25.5265C177.023 25.1484 176.412 24.9593 175.594 24.9593C175.045 24.9593 174.501 25.0447 173.964 25.2155C173.439 25.3863 172.994 25.6242 172.627 25.9291L171.73 24.2639C172.255 23.8614 172.877 23.5625 173.598 23.3673C174.33 23.1599 175.087 23.0562 175.869 23.0562C177.284 23.0562 178.378 23.3978 179.147 24.081C179.928 24.7519 180.319 25.7949 180.319 27.21V32.9375H178.158ZM175.081 33.0656C174.349 33.0656 173.708 32.9436 173.158 32.6996C172.609 32.4434 172.181 32.0957 171.876 31.6566C171.583 31.2052 171.437 30.6989 171.437 30.1378C171.437 29.5888 171.565 29.0948 171.821 28.6556C172.09 28.2164 172.523 27.8688 173.122 27.6126C173.72 27.3564 174.514 27.2283 175.503 27.2283H178.341V28.7471H175.667C174.885 28.7471 174.361 28.8752 174.092 29.1314C173.823 29.3754 173.689 29.6803 173.689 30.0463C173.689 30.461 173.854 30.7904 174.184 31.0344C174.514 31.2784 174.971 31.4004 175.557 31.4004C176.119 31.4004 176.62 31.2723 177.059 31.0161C177.511 30.76 177.834 30.3818 178.03 29.8816L178.414 31.254C178.195 31.8274 177.797 32.2726 177.224 32.5898C176.662 32.907 175.948 33.0656 175.081 33.0656ZM187.649 32.9375V20.1285H189.609L197.649 29.9914H196.678V20.1285H199.041V32.9375H197.081L189.041 23.0745H190.012V32.9375H187.649ZM200.909 28.7654V27.3015H206.897V28.7654H200.909ZM203.894 25.9657C203.246 25.9657 202.672 25.8376 202.172 25.5814C201.671 25.3253 201.275 24.9715 200.982 24.5201C200.689 24.0688 200.542 23.5503 200.542 22.9647C200.542 22.3914 200.689 21.8851 200.982 21.446C201.275 20.9946 201.671 20.6408 202.172 20.3846C202.672 20.1285 203.246 20.0004 203.894 20.0004C204.553 20.0004 205.133 20.1285 205.634 20.3846C206.134 20.6408 206.525 20.9946 206.806 21.446C207.099 21.8851 207.245 22.3975 207.245 22.983C207.245 23.5564 207.099 24.0688 206.806 24.5201C206.525 24.9715 206.134 25.3253 205.634 25.5814C205.133 25.8376 204.553 25.9657 203.894 25.9657ZM203.894 24.6665C204.43 24.6665 204.858 24.514 205.176 24.209C205.505 23.8918 205.67 23.4832 205.67 22.983C205.67 22.4585 205.505 22.0437 205.176 21.7387C204.858 21.4338 204.43 21.2813 203.894 21.2813C203.368 21.2813 202.941 21.4398 202.612 21.757C202.282 22.062 202.117 22.4707 202.117 22.983C202.117 23.4832 202.282 23.8918 202.612 24.209C202.941 24.514 203.368 24.6665 203.894 24.6665ZM211.035 32.9375V21.0434L212.079 22.123H208.325V20.1285H213.416V32.9375H211.035Z" fill="black"/>
<path d="M22.8923 44.8315H292.107V71.3645H22.8923V44.8315Z" fill="white"/>
<mask id="mask0_33_207" style="mask-type:luminance" maskUnits="userSpaceOnUse" x="22" y="44" width="271" height="28">
<path d="M22.8923 44.8315H292.107V71.3645H22.8923V44.8315Z" fill="black" fill-opacity="0.5"/>
</mask>
<g mask="url(#mask0_33_207)">
<path d="M292.107 70.4496H22.8923V72.2794H292.107V70.4496Z" fill="black" fill-opacity="0.5"/>
</g>
<path d="M24.267 65.875V57.4211L24.8182 58.0231H22.2415V56.9087H25.5361V65.875H24.267ZM28.8873 65.9519C28.648 65.9519 28.4429 65.8707 28.272 65.7085C28.101 65.5377 28.0156 65.3242 28.0156 65.068C28.0156 64.8119 28.101 64.6026 28.272 64.4404C28.4429 64.2782 28.648 64.197 28.8873 64.197C29.1181 64.197 29.3147 64.2782 29.477 64.4404C29.648 64.6026 29.7334 64.8119 29.7334 65.068C29.7334 65.3242 29.648 65.5377 29.477 65.7085C29.3147 65.8707 29.1181 65.9519 28.8873 65.9519ZM41.7032 65.0406L42.0878 64.2281C42.4248 64.4916 42.7947 64.6893 43.1977 64.821C43.6079 64.9528 44.0145 65.0223 44.4174 65.0296C44.8203 65.0296 45.1902 64.9747 45.5272 64.8649C45.8715 64.7551 46.1462 64.5905 46.3513 64.3709C46.5564 64.1513 46.659 63.8805 46.659 63.5584C46.659 63.1632 46.4978 62.8631 46.1755 62.6581C45.8605 62.4532 45.421 62.3507 44.8569 62.3507H43.1427V61.4614H44.78C45.2708 61.4614 45.6517 61.3626 45.9228 61.1649C46.2011 60.96 46.3403 60.6782 46.3403 60.3196C46.3403 60.0487 46.2561 59.8218 46.0876 59.6388C45.9264 59.4485 45.703 59.3058 45.4173 59.2107C45.1389 59.1155 44.8203 59.0679 44.4613 59.0679C44.1097 59.0606 43.7471 59.1082 43.3735 59.2107C42.9999 59.3058 42.6409 59.4595 42.2966 59.6718L41.945 58.7715C42.4138 58.508 42.901 58.325 43.4064 58.2225C43.9192 58.1127 44.4137 58.0798 44.8899 58.1237C45.366 58.1603 45.7946 58.2701 46.1755 58.4531C46.5638 58.6288 46.8714 58.863 47.0985 59.1558C47.3329 59.4412 47.4502 59.7852 47.4502 60.1878C47.4502 60.5538 47.3549 60.8795 47.1645 61.1649C46.974 61.4431 46.7103 61.659 46.3733 61.8127C46.0363 61.9591 45.6444 62.0323 45.1975 62.0323L45.2415 61.7359C45.7543 61.7359 46.1975 61.82 46.5711 61.9884C46.952 62.1494 47.245 62.38 47.4502 62.6801C47.6626 62.9802 47.7688 63.3278 47.7688 63.7231C47.7688 64.0964 47.6736 64.4294 47.4831 64.7222C47.2927 65.0077 47.0326 65.2492 46.7029 65.4468C46.3806 65.6371 46.0107 65.7762 45.5931 65.864C45.1829 65.9519 44.7507 65.9811 44.2965 65.9519C43.8423 65.9226 43.3918 65.8348 42.9449 65.6884C42.5054 65.542 42.0915 65.326 41.7032 65.0406ZM53.5371 65.875V64.6453L53.4821 64.4148V62.3178C53.4821 61.8713 53.3503 61.5273 53.0865 61.2857C52.8302 61.0369 52.4419 60.9124 51.9218 60.9124C51.5775 60.9124 51.2405 60.971 50.9109 61.0881C50.5812 61.1979 50.3028 61.3479 50.0757 61.5382L49.6362 60.7477C49.9365 60.5062 50.2955 60.3232 50.7131 60.1988C51.1379 60.067 51.5811 60.0012 52.0427 60.0012C52.8411 60.0012 53.4565 60.1951 53.8887 60.5831C54.3209 60.971 54.537 61.5639 54.537 62.3617V65.875H53.5371ZM51.6251 65.9409C51.1929 65.9409 50.812 65.8677 50.4823 65.7213C50.16 65.5749 49.9109 65.3736 49.7351 65.1174C49.5593 64.8539 49.4714 64.5575 49.4714 64.2281C49.4714 63.9134 49.5446 63.6279 49.6911 63.3718C49.845 63.1156 50.0904 62.9106 50.4274 62.7569C50.7717 62.6032 51.2332 62.5264 51.8119 62.5264H53.6579V63.2839H51.8558C51.3284 63.2839 50.9731 63.3718 50.79 63.5474C50.6068 63.7231 50.5153 63.9354 50.5153 64.1842C50.5153 64.4697 50.6288 64.7002 50.8559 64.8759C51.083 65.0443 51.398 65.1284 51.8009 65.1284C52.1965 65.1284 52.5408 65.0406 52.8338 64.8649C53.1342 64.6893 53.3503 64.4331 53.4821 64.0964L53.6909 64.821C53.5517 65.165 53.3063 65.4395 52.9547 65.6444C52.6031 65.8421 52.1599 65.9409 51.6251 65.9409ZM56.9786 65.875V60.0561H59.6818C60.363 60.0561 60.8978 60.1878 61.2861 60.4513C61.6817 60.7075 61.8794 61.0735 61.8794 61.5492C61.8794 62.025 61.6926 62.3946 61.319 62.6581C60.9528 62.9143 60.4656 63.0424 59.8576 63.0424L60.0224 62.7569C60.7183 62.7569 61.2348 62.885 61.5718 63.1412C61.9087 63.3974 62.0772 63.7743 62.0772 64.2721C62.0772 64.7771 61.8868 65.1723 61.5058 65.4578C61.1322 65.7359 60.5572 65.875 59.7807 65.875H56.9786ZM58.0115 65.0626H59.7037C60.1433 65.0626 60.4729 64.9967 60.6927 64.8649C60.9125 64.7259 61.0223 64.5063 61.0223 64.2062C61.0223 63.8988 60.9198 63.6755 60.7147 63.5364C60.5169 63.3901 60.2019 63.3169 59.7697 63.3169H58.0115V65.0626ZM58.0115 62.5593H59.5939C59.9968 62.5593 60.3008 62.4861 60.5059 62.3397C60.7183 62.186 60.8246 61.9737 60.8246 61.7029C60.8246 61.4248 60.7183 61.2162 60.5059 61.0771C60.3008 60.938 59.9968 60.8685 59.5939 60.8685H58.0115V62.5593ZM66.8637 65.9409C66.241 65.9409 65.6916 65.8128 65.2154 65.5566C64.7466 65.3004 64.3803 64.9491 64.1166 64.5026C63.8602 64.0561 63.732 63.5438 63.732 62.9655C63.732 62.3873 63.8565 61.8749 64.1056 61.4284C64.362 60.982 64.71 60.6343 65.1495 60.3854C65.5964 60.1292 66.0982 60.0012 66.6549 60.0012C67.219 60.0012 67.7171 60.1256 68.1493 60.3744C68.5815 60.6233 68.9185 60.9746 69.1602 61.4284C69.4093 61.8749 69.5339 62.3983 69.5339 62.9985C69.5339 63.0424 69.5302 63.0936 69.5229 63.1522C69.5229 63.2107 69.5192 63.2656 69.5119 63.3169H64.5561V62.5593H68.9625L68.5339 62.8228C68.5412 62.4495 68.4643 62.1165 68.3032 61.8237C68.142 61.5309 67.9186 61.304 67.6329 61.143C67.3545 60.9746 67.0285 60.8905 66.6549 60.8905C66.2886 60.8905 65.9626 60.9746 65.6769 61.143C65.3912 61.304 65.1678 61.5346 65.0066 61.8347C64.8455 62.1275 64.7649 62.4642 64.7649 62.8448V63.0204C64.7649 63.4084 64.8528 63.756 65.0286 64.0634C65.2118 64.3635 65.4645 64.5978 65.7868 64.7661C66.1091 64.9345 66.4791 65.0186 66.8966 65.0186C67.2409 65.0186 67.5523 64.9601 67.8307 64.843C68.1164 64.7259 68.3654 64.5502 68.5779 64.316L69.1602 64.9967C68.8965 65.3041 68.5669 65.5383 68.1713 65.6993C67.783 65.8604 67.3472 65.9409 66.8637 65.9409ZM75.5936 65.3809V60.9783H73.0662L73.0113 62.0982C72.9967 62.4642 72.971 62.8191 72.9344 63.1632C72.9051 63.4999 72.8538 63.8109 72.7806 64.0964C72.7146 64.3818 72.6157 64.6161 72.4839 64.799C72.352 64.982 72.1762 65.0955 71.9564 65.1394L70.9125 64.9528C71.1396 64.9601 71.3228 64.8869 71.4619 64.7332C71.6011 64.5721 71.7074 64.3526 71.7806 64.0744C71.8612 63.7963 71.9198 63.4816 71.9564 63.1302C71.9931 62.7716 72.0224 62.4019 72.0443 62.0213L72.1322 60.0561H76.6485V65.3809H75.5936ZM70.6818 67.2254V64.9528H77.5385V67.2254H76.5496V65.875H71.6817V67.2254H70.6818ZM82.0481 65.9409C81.4255 65.9409 80.876 65.8128 80.3999 65.5566C79.931 65.3004 79.5648 64.9491 79.301 64.5026C79.0447 64.0561 78.9165 63.5438 78.9165 62.9655C78.9165 62.3873 79.041 61.8749 79.2901 61.4284C79.5465 60.982 79.8944 60.6343 80.334 60.3854C80.7808 60.1292 81.2826 60.0012 81.8394 60.0012C82.4034 60.0012 82.9016 60.1256 83.3338 60.3744C83.766 60.6233 84.103 60.9746 84.3447 61.4284C84.5938 61.8749 84.7183 62.3983 84.7183 62.9985C84.7183 63.0424 84.7147 63.0936 84.7073 63.1522C84.7073 63.2107 84.7037 63.2656 84.6963 63.3169H79.7406V62.5593H84.1469L83.7184 62.8228C83.7257 62.4495 83.6488 62.1165 83.4876 61.8237C83.3265 61.5309 83.103 61.304 82.8173 61.143C82.539 60.9746 82.213 60.8905 81.8394 60.8905C81.4731 60.8905 81.1471 60.9746 80.8614 61.143C80.5757 61.304 80.3523 61.5346 80.1911 61.8347C80.0299 62.1275 79.9494 62.4642 79.9494 62.8448V63.0204C79.9494 63.4084 80.0373 63.756 80.2131 64.0634C80.3962 64.3635 80.649 64.5978 80.9713 64.7661C81.2936 64.9345 81.6636 65.0186 82.0811 65.0186C82.4254 65.0186 82.7367 64.9601 83.0151 64.843C83.3008 64.7259 83.5499 64.5502 83.7623 64.316L84.3447 64.9967C84.081 65.3041 83.7513 65.5383 83.3558 65.6993C82.9675 65.8604 82.5316 65.9409 82.0481 65.9409ZM86.8969 65.875V60.0561H87.9517V62.5264H91.2702V60.0561H92.3253V65.875H91.2702V63.4376H87.9517V65.875H86.8969ZM94.9185 65.875V60.0561H95.9734V64.294L99.5447 60.0561H100.501V65.875H99.4458V61.637L95.8855 65.875H94.9185ZM105.683 65.9409C105.061 65.9409 104.511 65.8128 104.035 65.5566C103.566 65.3004 103.2 64.9491 102.936 64.5026C102.68 64.0561 102.552 63.5438 102.552 62.9655C102.552 62.3873 102.676 61.8749 102.925 61.4284C103.182 60.982 103.53 60.6343 103.969 60.3854C104.416 60.1292 104.918 60.0012 105.475 60.0012C106.039 60.0012 106.537 60.1256 106.969 60.3744C107.401 60.6233 107.738 60.9746 107.98 61.4284C108.229 61.8749 108.354 62.3983 108.354 62.9985C108.354 63.0424 108.35 63.0936 108.343 63.1522C108.343 63.2107 108.339 63.2656 108.332 63.3169H103.376V62.5593H107.782L107.354 62.8228C107.361 62.4495 107.284 62.1165 107.123 61.8237C106.962 61.5309 106.738 61.304 106.453 61.143C106.174 60.9746 105.848 60.8905 105.475 60.8905C105.108 60.8905 104.782 60.9746 104.497 61.143C104.211 61.304 103.988 61.5346 103.826 61.8347C103.665 62.1275 103.585 62.4642 103.585 62.8448V63.0204C103.585 63.4084 103.673 63.756 103.848 64.0634C104.032 64.3635 104.284 64.5978 104.607 64.7661C104.929 64.9345 105.299 65.0186 105.716 65.0186C106.061 65.0186 106.372 64.9601 106.65 64.843C106.936 64.7259 107.185 64.5502 107.398 64.316L107.98 64.9967C107.716 65.3041 107.387 65.5383 106.991 65.6993C106.603 65.8604 106.167 65.9409 105.683 65.9409Z" fill="black"/>
<path d="M22.8923 131.75H292.107V158.283H22.8923V131.75Z" fill="white"/>
<mask id="mask1_33_207" style="mask-type:luminance" maskUnits="userSpaceOnUse" x="22" y="131" width="271" height="28">
<path d="M22.8923 131.75H292.107V158.283H22.8923V131.75Z" fill="black" fill-opacity="0.5"/>
</mask>
<g mask="url(#mask1_33_207)">
<path d="M292.107 157.368H22.8923V159.198H292.107V157.368Z" fill="black" fill-opacity="0.5"/>
</g>
<path d="M23.6452 153.708V152.837L27.2988 149.315C27.6236 149.007 27.8629 148.738 28.0167 148.508C28.1791 148.269 28.286 148.051 28.3372 147.855C28.397 147.65 28.427 147.453 28.427 147.265C28.427 146.804 28.2646 146.441 27.9398 146.177C27.615 145.912 27.1407 145.78 26.5168 145.78C26.0382 145.78 25.6066 145.861 25.222 146.023C24.8374 146.177 24.5041 146.42 24.2221 146.753L23.3503 145.997C23.6922 145.562 24.1495 145.229 24.7221 144.998C25.3032 144.759 25.9399 144.64 26.6322 144.64C27.2561 144.64 27.7988 144.742 28.2603 144.947C28.7218 145.144 29.0765 145.429 29.3244 145.805C29.5807 146.181 29.7089 146.625 29.7089 147.137C29.7089 147.427 29.6705 147.714 29.5936 147.995C29.5167 148.277 29.3713 148.576 29.1577 148.892C28.9441 149.208 28.6364 149.563 28.2347 149.955L24.9785 153.093L24.6708 152.594H30.0935V153.708H23.6452ZM32.661 153.785C32.4216 153.785 32.2165 153.704 32.0456 153.542C31.8747 153.371 31.7892 153.158 31.7892 152.901C31.7892 152.645 31.8747 152.436 32.0456 152.274C32.2165 152.112 32.4216 152.03 32.661 152.03C32.8917 152.03 33.0882 152.112 33.2507 152.274C33.4215 152.436 33.5071 152.645 33.5071 152.901C33.5071 153.158 33.4215 153.371 33.2507 153.542C33.0882 153.704 32.8917 153.785 32.661 153.785ZM46.301 152.742C46.682 152.881 47.0336 152.918 47.3559 152.852C47.6782 152.779 47.9676 152.534 48.224 152.116L48.5976 151.523L48.7075 151.403L51.5315 146.023H52.6193L49.202 152.347C48.9456 152.83 48.6452 153.196 48.3009 153.445C47.9639 153.686 47.5977 153.818 47.2021 153.84C46.8138 153.869 46.4182 153.796 46.0153 153.62L46.301 152.742ZM48.6745 152.38L45.3011 146.023H46.4768L49.2789 151.502L48.6745 152.38ZM57.6027 151.326C57.2951 151.472 56.9764 151.589 56.6468 151.677C56.3244 151.758 55.9911 151.798 55.6468 151.798C54.9436 151.798 54.3868 151.633 53.9766 151.304C53.5737 150.975 53.3722 150.466 53.3722 149.778V147.889H54.4271V149.712C54.4271 150.129 54.5553 150.437 54.8117 150.634C55.0754 150.832 55.427 150.931 55.8666 150.931C56.145 150.931 56.4307 150.894 56.7237 150.821C57.024 150.748 57.317 150.645 57.6027 150.513V151.326ZM57.5258 153.708V147.889H58.5807V153.708H57.5258ZM64.742 153.708V152.479L64.687 152.248V150.151C64.687 149.705 64.5552 149.361 64.2915 149.119C64.0351 148.87 63.6468 148.746 63.1267 148.746C62.7824 148.746 62.4454 148.804 62.1158 148.921C61.7861 149.031 61.5077 149.181 61.2806 149.372L60.8411 148.581C61.1415 148.34 61.5004 148.157 61.918 148.032C62.3429 147.9 62.7861 147.834 63.2476 147.834C64.0461 147.834 64.6614 148.028 65.0936 148.416C65.5258 148.804 65.7419 149.397 65.7419 150.195V153.708H64.742ZM62.83 153.774C62.3978 153.774 62.0169 153.701 61.6872 153.555C61.3649 153.408 61.1158 153.207 60.94 152.951C60.7642 152.687 60.6763 152.391 60.6763 152.061C60.6763 151.747 60.7495 151.461 60.8961 151.205C61.0499 150.949 61.2953 150.744 61.6323 150.59C61.9766 150.437 62.4381 150.36 63.0168 150.36H64.8629V151.117H63.0608C62.5333 151.117 62.178 151.205 61.9949 151.381C61.8118 151.556 61.7202 151.769 61.7202 152.018C61.7202 152.303 61.8337 152.534 62.0608 152.709C62.2879 152.878 62.6029 152.962 63.0058 152.962C63.4014 152.962 63.7457 152.874 64.0387 152.698C64.3391 152.523 64.5552 152.266 64.687 151.93L64.8958 152.654C64.7566 152.998 64.5112 153.273 64.1596 153.478C63.808 153.675 63.3648 153.774 62.83 153.774ZM70.7219 153.774C70.1285 153.774 69.5974 153.646 69.1285 153.39C68.667 153.134 68.3044 152.782 68.0407 152.336C67.777 151.889 67.6451 151.377 67.6451 150.799C67.6451 150.221 67.777 149.708 68.0407 149.262C68.3044 148.815 68.667 148.468 69.1285 148.219C69.5974 147.963 70.1285 147.834 70.7219 147.834C71.2493 147.834 71.7181 147.941 72.1284 148.153C72.5459 148.358 72.8683 148.665 73.0953 149.075L72.2932 149.591C72.1027 149.306 71.8683 149.097 71.5899 148.965C71.3189 148.826 71.0259 148.757 70.7109 148.757C70.3299 148.757 69.9893 148.841 69.6889 149.009C69.3886 149.178 69.1505 149.415 68.9747 149.723C68.7989 150.023 68.711 150.382 68.711 150.799C68.711 151.216 68.7989 151.578 68.9747 151.886C69.1505 152.193 69.3886 152.431 69.6889 152.599C69.9893 152.768 70.3299 152.852 70.7109 152.852C71.0259 152.852 71.3189 152.786 71.5899 152.654C71.8683 152.515 72.1027 152.303 72.2932 152.018L73.0953 152.523C72.8683 152.925 72.5459 153.236 72.1284 153.456C71.7181 153.668 71.2493 153.774 70.7219 153.774ZM76.0818 153.708V148.537L76.3455 148.812H73.9501V147.889H79.2684V148.812H76.8839L77.1367 148.537V153.708H76.0818ZM80.8892 153.708V147.889H81.9441V150.36H85.2626V147.889H86.3175V153.708H85.2626V151.271H81.9441V153.708H80.8892ZM88.9107 153.708V147.889H89.9656V152.127L93.5367 147.889H94.4927V153.708H93.4378V149.47L89.8777 153.708H88.9107ZM101.302 153.708L99.0492 150.876L99.9173 150.349L102.544 153.708H101.302ZM97.0823 153.708V147.889H98.1372V153.708H97.0823ZM97.8185 151.249V150.349H99.7415V151.249H97.8185ZM100.005 150.92L99.0273 150.788L101.258 147.889H102.39L100.005 150.92ZM104.192 153.708V147.889H105.247V152.127L108.818 147.889H109.774V153.708H108.719V149.47L105.159 153.708H104.192Z" fill="black"/>
<path d="M20.1453 383.356H289.36V409.889H20.1453V383.356Z" fill="white"/>
<mask id="mask2_33_207" style="mask-type:luminance" maskUnits="userSpaceOnUse" x="20" y="383" width="270" height="27">
<path d="M20.1453 383.356H289.36V409.889H20.1453V383.356Z" fill="black" fill-opacity="0.5"/>
</mask>
<g mask="url(#mask2_33_207)">
<path d="M289.36 408.974H20.1453V410.804H289.36V408.974Z" fill="black" fill-opacity="0.5"/>
</g>
<path d="M23.1848 404.502C22.5523 404.502 21.937 404.404 21.3388 404.207C20.7491 404.01 20.2661 403.746 19.8901 403.413L20.4798 402.401C20.7789 402.683 21.1678 402.913 21.6464 403.093C22.125 403.272 22.6378 403.362 23.1848 403.362C23.8514 403.362 24.3684 403.221 24.736 402.939C25.112 402.649 25.3001 402.26 25.3001 401.773C25.3001 401.304 25.1206 400.928 24.7616 400.646C24.4112 400.356 23.8514 400.211 23.0823 400.211H22.3644V399.314L25.0309 396.035L25.2103 396.547H20.3004V395.433H26.2231V396.304L23.5694 399.57L22.9028 399.173H23.3258C24.4112 399.173 25.2232 399.417 25.7616 399.903C26.3085 400.39 26.5821 401.009 26.5821 401.761C26.5821 402.265 26.4581 402.726 26.2103 403.144C25.9624 403.562 25.5863 403.895 25.0821 404.143C24.5864 404.382 23.954 404.502 23.1848 404.502ZM29.1659 404.476C28.9266 404.476 28.7215 404.395 28.5505 404.233C28.3796 404.062 28.2941 403.849 28.2941 403.592C28.2941 403.336 28.3796 403.127 28.5505 402.965C28.7215 402.803 28.9266 402.721 29.1659 402.721C29.3966 402.721 29.5932 402.803 29.7556 402.965C29.9265 403.127 30.012 403.336 30.012 403.592C30.012 403.849 29.9265 404.062 29.7556 404.233C29.5932 404.395 29.3966 404.476 29.1659 404.476ZM47.9375 403.883V397.669H44.5641L44.5091 399.283C44.4872 399.825 44.4505 400.344 44.3992 400.842C44.3553 401.34 44.2894 401.79 44.2015 402.192C44.1135 402.588 43.989 402.913 43.8278 403.17C43.674 403.426 43.4762 403.583 43.2345 403.642L42.0477 403.444C42.3334 403.466 42.5678 403.371 42.751 403.159C42.9415 402.939 43.088 402.635 43.1905 402.247C43.3004 401.852 43.381 401.395 43.4323 400.875C43.4835 400.348 43.5202 399.784 43.5422 399.184L43.6191 396.714H49.0253V403.883H47.9375ZM41.773 406.079L41.784 403.444H50.1571V406.079H49.1352V404.399H42.8059L42.7949 406.079H41.773ZM55.5969 404.399V403.17L55.542 402.939V400.842C55.542 400.396 55.4101 400.052 55.1464 399.81C54.89 399.561 54.5018 399.437 53.9817 399.437C53.6374 399.437 53.3004 399.495 52.9707 399.612C52.6411 399.722 52.3627 399.872 52.1356 400.063L51.6961 399.272C51.9964 399.03 52.3554 398.847 52.7729 398.723C53.1978 398.591 53.641 398.525 54.1025 398.525C54.901 398.525 55.5164 398.719 55.9486 399.107C56.3808 399.495 56.5969 400.088 56.5969 400.886V404.399H55.5969ZM53.685 404.465C53.2528 404.465 52.8718 404.392 52.5422 404.246C52.2199 404.099 51.9708 403.898 51.795 403.642C51.6192 403.378 51.5312 403.082 51.5312 402.752C51.5312 402.438 51.6045 402.152 51.751 401.896C51.9048 401.64 52.1503 401.435 52.4872 401.281C52.8315 401.128 53.293 401.051 53.8718 401.051H55.7178V401.808H53.9157C53.3883 401.808 53.033 401.896 52.8499 402.072C52.6667 402.247 52.5751 402.46 52.5751 402.709C52.5751 402.994 52.6887 403.225 52.9158 403.4C53.1429 403.569 53.4579 403.653 53.8608 403.653C54.2564 403.653 54.6007 403.565 54.8937 403.389C55.194 403.214 55.4101 402.957 55.542 402.621L55.7508 403.345C55.6116 403.689 55.3662 403.964 55.0146 404.169C54.6629 404.366 54.2197 404.465 53.685 404.465ZM60.1923 404.399V399.228L60.456 399.503H58.0605V398.58H63.3789V399.503H60.9944L61.2472 399.228V404.399H60.1923ZM68.5708 404.399V403.17L68.5159 402.939V400.842C68.5159 400.396 68.384 400.052 68.1203 399.81C67.8639 399.561 67.4756 399.437 66.9555 399.437C66.6112 399.437 66.2743 399.495 65.9446 399.612C65.615 399.722 65.3366 399.872 65.1095 400.063L64.67 399.272C64.9703 399.03 65.3293 398.847 65.7468 398.723C66.1717 398.591 66.6149 398.525 67.0764 398.525C67.8749 398.525 68.4902 398.719 68.9225 399.107C69.3547 399.495 69.5708 400.088 69.5708 400.886V404.399H68.5708ZM66.6588 404.465C66.2266 404.465 65.8457 404.392 65.5161 404.246C65.1937 404.099 64.9447 403.898 64.7688 403.642C64.593 403.378 64.5051 403.082 64.5051 402.752C64.5051 402.438 64.5784 402.152 64.7249 401.896C64.8787 401.64 65.1241 401.435 65.4611 401.281C65.8054 401.128 66.2669 401.051 66.8457 401.051H68.6917V401.808H66.8896C66.3622 401.808 66.0069 401.896 65.8237 402.072C65.6406 402.247 65.549 402.46 65.549 402.709C65.549 402.994 65.6626 403.225 65.8897 403.4C66.1168 403.569 66.4318 403.653 66.8347 403.653C67.2302 403.653 67.5745 403.565 67.8676 403.389C68.1679 403.214 68.384 402.957 68.5159 402.621L68.7247 403.345C68.5855 403.689 68.3401 403.964 67.9884 404.169C67.6368 404.366 67.1936 404.465 66.6588 404.465ZM75.5055 404.399V398.58H76.5604V402.818L80.1316 398.58H81.0876V404.399H80.0327V400.161L76.4725 404.399H75.5055ZM87.1703 404.399V398.58H89.8734C90.5547 398.58 91.0895 398.712 91.4777 398.976C91.8737 399.232 92.0715 399.598 92.0715 400.074C92.0715 400.549 91.8847 400.919 91.5107 401.182C91.1444 401.439 90.6573 401.567 90.0492 401.567L90.2141 401.281C90.91 401.281 91.4265 401.409 91.7638 401.665C92.1008 401.922 92.2693 402.299 92.2693 402.796C92.2693 403.301 92.0788 403.697 91.6979 403.982C91.3239 404.26 90.7488 404.399 89.9723 404.399H87.1703ZM88.2032 403.587H89.8954C90.3349 403.587 90.6646 403.521 90.8844 403.389C91.1041 403.25 91.214 403.031 91.214 402.73C91.214 402.423 91.1115 402.2 90.9063 402.061C90.7085 401.914 90.3935 401.841 89.9613 401.841H88.2032V403.587ZM88.2032 401.084H89.7855C90.1884 401.084 90.4924 401.01 90.6976 400.864C90.91 400.71 91.0162 400.498 91.0162 400.227C91.0162 399.949 90.91 399.74 90.6976 399.601C90.4924 399.462 90.1884 399.393 89.7855 399.393H88.2032V401.084ZM97.5501 404.465C97.0666 404.465 96.6234 404.355 96.2205 404.136C95.8249 403.909 95.5063 403.576 95.2645 403.137C95.0301 402.698 94.9129 402.149 94.9129 401.49C94.9129 400.831 95.0264 400.282 95.2535 399.843C95.4879 399.404 95.8029 399.074 96.1985 398.855C96.6014 398.635 97.052 398.525 97.5501 398.525C98.1215 398.525 98.627 398.65 99.0665 398.899C99.506 399.148 99.854 399.495 100.11 399.942C100.367 400.381 100.495 400.897 100.495 401.49C100.495 402.083 100.367 402.602 100.11 403.049C99.854 403.495 99.506 403.843 99.0665 404.092C98.627 404.341 98.1215 404.465 97.5501 404.465ZM94.4624 406.529V398.58H95.4733V400.15L95.4074 401.501L95.5172 402.851V406.529H94.4624ZM97.4622 403.543C97.8358 403.543 98.1691 403.459 98.4621 403.29C98.7625 403.122 98.9969 402.884 99.1654 402.577C99.3412 402.262 99.4291 401.9 99.4291 401.49C99.4291 401.073 99.3412 400.714 99.1654 400.414C98.9969 400.106 98.7625 399.869 98.4621 399.7C98.1691 399.532 97.8358 399.448 97.4622 399.448C97.0959 399.448 96.7626 399.532 96.4622 399.7C96.1692 399.869 95.9348 400.106 95.759 400.414C95.5905 400.714 95.5063 401.073 95.5063 401.49C95.5063 401.9 95.5905 402.262 95.759 402.577C95.9348 402.884 96.1692 403.122 96.4622 403.29C96.7626 403.459 97.0959 403.543 97.4622 403.543ZM105.162 404.465C104.54 404.465 103.99 404.337 103.514 404.081C103.045 403.825 102.679 403.473 102.415 403.027C102.159 402.58 102.031 402.068 102.031 401.49C102.031 400.912 102.155 400.399 102.404 399.953C102.661 399.506 103.009 399.159 103.448 398.91C103.895 398.654 104.397 398.525 104.954 398.525C105.518 398.525 106.016 398.65 106.448 398.899C106.88 399.148 107.217 399.499 107.459 399.953C107.708 400.399 107.832 400.923 107.832 401.523C107.832 401.567 107.829 401.618 107.821 401.676C107.821 401.735 107.818 401.79 107.81 401.841H102.855V401.084H107.261L106.833 401.347C106.84 400.974 106.763 400.641 106.602 400.348C106.441 400.055 106.217 399.828 105.931 399.667C105.653 399.499 105.327 399.415 104.954 399.415C104.587 399.415 104.261 399.499 103.976 399.667C103.69 399.828 103.466 400.059 103.305 400.359C103.144 400.652 103.064 400.988 103.064 401.369V401.545C103.064 401.933 103.151 402.28 103.327 402.588C103.51 402.888 103.763 403.122 104.085 403.29C104.408 403.459 104.778 403.543 105.195 403.543C105.54 403.543 105.851 403.484 106.129 403.367C106.415 403.25 106.664 403.074 106.876 402.84L107.459 403.521C107.195 403.828 106.865 404.063 106.47 404.224C106.082 404.385 105.646 404.465 105.162 404.465ZM110.012 404.399V398.58H111.1L113.605 402.884H113.165L115.737 398.58H116.726V404.399H115.77V399.766L115.946 399.865L113.594 403.741H113.133L110.77 399.788L110.979 399.744V404.399H110.012ZM123.046 404.399V402.357L123.211 402.555H121.354C120.577 402.555 119.969 402.39 119.53 402.061C119.097 401.731 118.881 401.252 118.881 400.622C118.881 399.949 119.112 399.44 119.574 399.096C120.042 398.752 120.665 398.58 121.442 398.58H123.991V404.399H123.046ZM118.826 404.399L120.409 402.171H121.497L119.958 404.399H118.826ZM123.046 402.028V399.206L123.211 399.503H121.475C120.991 399.503 120.617 399.594 120.354 399.777C120.09 399.953 119.958 400.245 119.958 400.655C119.958 401.417 120.449 401.797 121.431 401.797H123.211L123.046 402.028ZM130.084 404.399V398.58H132.787C133.468 398.58 134.003 398.712 134.391 398.976C134.787 399.232 134.985 399.598 134.985 400.074C134.985 400.549 134.798 400.919 134.424 401.182C134.058 401.439 133.571 401.567 132.963 401.567L133.128 401.281C133.824 401.281 134.34 401.409 134.677 401.665C135.014 401.922 135.183 402.299 135.183 402.796C135.183 403.301 134.992 403.697 134.611 403.982C134.238 404.26 133.662 404.399 132.886 404.399H130.084ZM131.117 403.587H132.809C133.249 403.587 133.578 403.521 133.798 403.389C134.018 403.25 134.128 403.031 134.128 402.73C134.128 402.423 134.025 402.2 133.82 402.061C133.622 401.914 133.307 401.841 132.875 401.841H131.117V403.587ZM131.117 401.084H132.699C133.102 401.084 133.406 401.01 133.611 400.864C133.824 400.71 133.93 400.498 133.93 400.227C133.93 399.949 133.824 399.74 133.611 399.601C133.406 399.462 133.102 399.393 132.699 399.393H131.117V401.084ZM139.914 404.465C139.321 404.465 138.789 404.337 138.321 404.081C137.859 403.825 137.496 403.473 137.233 403.027C136.969 402.58 136.837 402.068 136.837 401.49C136.837 400.912 136.969 400.399 137.233 399.953C137.496 399.506 137.859 399.159 138.321 398.91C138.789 398.654 139.321 398.525 139.914 398.525C140.441 398.525 140.91 398.632 141.32 398.844C141.738 399.049 142.06 399.356 142.287 399.766L141.485 400.282C141.295 399.997 141.06 399.788 140.782 399.656C140.511 399.517 140.218 399.448 139.903 399.448C139.522 399.448 139.181 399.532 138.881 399.7C138.581 399.869 138.343 400.106 138.167 400.414C137.991 400.714 137.903 401.073 137.903 401.49C137.903 401.907 137.991 402.269 138.167 402.577C138.343 402.884 138.581 403.122 138.881 403.29C139.181 403.459 139.522 403.543 139.903 403.543C140.218 403.543 140.511 403.477 140.782 403.345C141.06 403.206 141.295 402.994 141.485 402.709L142.287 403.214C142.06 403.616 141.738 403.927 141.32 404.147C140.91 404.359 140.441 404.465 139.914 404.465ZM145.274 404.399V399.228L145.538 399.503H143.143V398.58H148.461V399.503H146.077L146.329 399.228V404.399H145.274ZM153.17 404.465C152.686 404.465 152.243 404.355 151.84 404.136C151.444 403.909 151.126 403.576 150.884 403.137C150.65 402.698 150.532 402.149 150.532 401.49C150.532 400.831 150.646 400.282 150.873 399.843C151.107 399.404 151.422 399.074 151.818 398.855C152.221 398.635 152.671 398.525 153.17 398.525C153.741 398.525 154.246 398.65 154.686 398.899C155.125 399.148 155.473 399.495 155.73 399.942C155.986 400.381 156.114 400.897 156.114 401.49C156.114 402.083 155.986 402.602 155.73 403.049C155.473 403.495 155.125 403.843 154.686 404.092C154.246 404.341 153.741 404.465 153.17 404.465ZM150.082 406.529V398.58H151.093V400.15L151.027 401.501L151.137 402.851V406.529H150.082ZM153.082 403.543C153.455 403.543 153.789 403.459 154.082 403.29C154.382 403.122 154.616 402.884 154.785 402.577C154.961 402.262 155.049 401.9 155.049 401.49C155.049 401.073 154.961 400.714 154.785 400.414C154.616 400.106 154.382 399.869 154.082 399.7C153.789 399.532 153.455 399.448 153.082 399.448C152.715 399.448 152.382 399.532 152.082 399.7C151.789 399.869 151.554 400.106 151.378 400.414C151.21 400.714 151.126 401.073 151.126 401.49C151.126 401.9 151.21 402.262 151.378 402.577C151.554 402.884 151.789 403.122 152.082 403.29C152.382 403.459 152.715 403.543 153.082 403.543ZM160.782 404.465C160.159 404.465 159.61 404.337 159.134 404.081C158.665 403.825 158.298 403.473 158.035 403.027C157.778 402.58 157.65 402.068 157.65 401.49C157.65 400.912 157.775 400.399 158.024 399.953C158.28 399.506 158.628 399.159 159.068 398.91C159.514 398.654 160.016 398.525 160.573 398.525C161.137 398.525 161.635 398.65 162.067 398.899C162.5 399.148 162.837 399.499 163.078 399.953C163.327 400.399 163.452 400.923 163.452 401.523C163.452 401.567 163.448 401.618 163.441 401.676C163.441 401.735 163.437 401.79 163.43 401.841H158.474V401.084H162.881L162.452 401.347C162.459 400.974 162.382 400.641 162.221 400.348C162.06 400.055 161.837 399.828 161.551 399.667C161.273 399.499 160.947 399.415 160.573 399.415C160.207 399.415 159.881 399.499 159.595 399.667C159.309 399.828 159.086 400.059 158.925 400.359C158.764 400.652 158.683 400.988 158.683 401.369V401.545C158.683 401.933 158.771 402.28 158.947 402.588C159.13 402.888 159.383 403.122 159.705 403.29C160.027 403.459 160.397 403.543 160.815 403.543C161.159 403.543 161.47 403.484 161.749 403.367C162.034 403.25 162.283 403.074 162.496 402.84L163.078 403.521C162.815 403.828 162.485 404.063 162.089 404.224C161.701 404.385 161.265 404.465 160.782 404.465ZM169.3 402.017C168.993 402.163 168.674 402.28 168.345 402.368C168.022 402.449 167.689 402.489 167.345 402.489C166.641 402.489 166.085 402.324 165.674 401.995C165.271 401.665 165.07 401.157 165.07 400.469V398.58H166.125V400.403C166.125 400.82 166.253 401.128 166.509 401.325C166.773 401.523 167.125 401.622 167.564 401.622C167.843 401.622 168.128 401.585 168.421 401.512C168.722 401.439 169.015 401.336 169.3 401.204V402.017ZM169.224 404.399V398.58H170.278V404.399H169.224ZM172.869 404.399V398.58H173.924V402.818L177.495 398.58H178.451V404.399H177.396V400.161L173.836 404.399H172.869Z" fill="black"/>
<path d="M123.161 489.707C122.172 489.707 121.25 489.549 120.396 489.232C119.553 488.902 118.821 488.438 118.198 487.841C117.575 487.244 117.087 486.542 116.733 485.737C116.391 484.931 116.22 484.047 116.22 483.083C116.22 482.12 116.391 481.235 116.733 480.43C117.087 479.625 117.575 478.923 118.198 478.326C118.833 477.728 119.572 477.271 120.414 476.953C121.257 476.624 122.179 476.459 123.18 476.459C124.29 476.459 125.292 476.654 126.183 477.045C127.087 477.423 127.843 477.984 128.454 478.728L126.549 480.485C126.11 479.984 125.622 479.613 125.084 479.369C124.547 479.113 123.961 478.984 123.326 478.984C122.728 478.984 122.179 479.082 121.678 479.277C121.177 479.472 120.744 479.753 120.377 480.119C120.011 480.485 119.725 480.918 119.517 481.418C119.322 481.919 119.224 482.473 119.224 483.083C119.224 483.694 119.322 484.248 119.517 484.748C119.725 485.249 120.011 485.682 120.377 486.048C120.744 486.414 121.177 486.695 121.678 486.889C122.179 487.084 122.728 487.182 123.326 487.182C123.961 487.182 124.547 487.061 125.084 486.816C125.622 486.56 126.11 486.176 126.549 485.663L128.454 487.42C127.843 488.164 127.087 488.731 126.183 489.122C125.292 489.513 124.285 489.707 123.161 489.707ZM134.986 489.634C133.935 489.634 133.001 489.415 132.184 488.975C131.378 488.536 130.737 487.939 130.261 487.182C129.796 486.414 129.565 485.542 129.565 484.565C129.565 483.577 129.796 482.705 130.261 481.949C130.737 481.18 131.378 480.583 132.184 480.156C133.001 479.716 133.935 479.497 134.986 479.497C136.023 479.497 136.951 479.716 137.769 480.156C138.587 480.583 139.228 481.174 139.692 481.93C140.156 482.687 140.388 483.565 140.388 484.565C140.388 485.542 140.156 486.414 139.692 487.182C139.228 487.939 138.587 488.536 137.769 488.975C136.951 489.415 136.023 489.634 134.986 489.634ZM134.986 487.292C135.462 487.292 135.888 487.182 136.268 486.963C136.646 486.743 136.945 486.432 137.165 486.029C137.385 485.615 137.495 485.126 137.495 484.565C137.495 483.992 137.385 483.504 137.165 483.102C136.945 482.699 136.646 482.388 136.268 482.168C135.888 481.949 135.462 481.839 134.986 481.839C134.509 481.839 134.082 481.949 133.704 482.168C133.325 482.388 133.02 482.699 132.788 483.102C132.568 483.504 132.458 483.992 132.458 484.565C132.458 485.126 132.568 485.615 132.788 486.029C133.02 486.432 133.325 486.743 133.704 486.963C134.082 487.182 134.509 487.292 134.986 487.292ZM146.049 489.671C146.978 489.671 147.807 489.549 148.54 489.305C149.285 489.049 149.871 488.689 150.298 488.225C150.737 487.749 150.957 487.194 150.957 486.56C150.957 485.816 150.646 485.231 150.023 484.803C149.401 484.364 148.546 484.145 147.459 484.145L147.386 484.712C148.009 484.712 148.571 484.609 149.071 484.401C149.572 484.181 149.963 483.882 150.243 483.504C150.536 483.126 150.682 482.699 150.682 482.223C150.682 481.626 150.469 481.119 150.042 480.705C149.627 480.29 149.053 479.973 148.32 479.753C147.587 479.533 146.763 479.435 145.848 479.46C145.225 479.472 144.597 479.558 143.961 479.716C143.327 479.875 142.686 480.089 142.038 480.357L142.734 482.333C143.284 482.113 143.821 481.949 144.346 481.839C144.871 481.717 145.378 481.656 145.866 481.656C146.294 481.656 146.648 481.699 146.928 481.784C147.209 481.857 147.423 481.967 147.569 482.113C147.716 482.26 147.789 482.436 147.789 482.644C147.789 482.839 147.728 483.01 147.606 483.157C147.496 483.291 147.326 483.394 147.093 483.468C146.861 483.541 146.58 483.577 146.251 483.577H144.474V485.352H146.489C147.001 485.352 147.392 485.437 147.661 485.609C147.93 485.767 148.064 486.005 148.064 486.322C148.064 486.566 147.978 486.773 147.807 486.944C147.637 487.115 147.386 487.249 147.056 487.347C146.74 487.432 146.36 487.475 145.921 487.475C145.311 487.475 144.707 487.414 144.108 487.292C143.522 487.157 142.979 486.969 142.478 486.725L141.709 488.719C142.344 489.037 143.034 489.275 143.778 489.433C144.535 489.591 145.293 489.671 146.049 489.671ZM160.318 488.207V481.985H157.095L157.04 483.248C157.015 483.772 156.985 484.273 156.949 484.748C156.912 485.224 156.839 485.657 156.729 486.048C156.631 486.426 156.484 486.749 156.289 487.018C156.093 487.274 155.831 487.45 155.502 487.548L152.681 487.146C153.035 487.146 153.322 487.042 153.542 486.835C153.762 486.615 153.932 486.316 154.055 485.938C154.177 485.547 154.268 485.108 154.33 484.62C154.39 484.12 154.433 483.596 154.458 483.047L154.586 479.643H163.175V488.207H160.318ZM152.352 491.61V487.146H164.586V491.61H161.93V489.488H155.007V491.61H152.352ZM172.822 489.488V487.566L172.639 487.146V483.705C172.639 483.095 172.45 482.619 172.071 482.278C171.705 481.937 171.137 481.766 170.368 481.766C169.843 481.766 169.324 481.851 168.811 482.022C168.312 482.18 167.884 482.4 167.53 482.681L166.504 480.686C167.041 480.308 167.689 480.016 168.445 479.808C169.202 479.6 169.972 479.497 170.753 479.497C172.255 479.497 173.421 479.851 174.251 480.558C175.081 481.265 175.496 482.37 175.496 483.87V489.488H172.822ZM169.819 489.634C169.05 489.634 168.39 489.506 167.841 489.25C167.291 488.982 166.87 488.621 166.577 488.17C166.284 487.719 166.138 487.212 166.138 486.652C166.138 486.066 166.279 485.554 166.559 485.114C166.852 484.675 167.31 484.334 167.932 484.09C168.555 483.834 169.367 483.705 170.368 483.705H172.987V485.371H170.68C170.008 485.371 169.544 485.48 169.288 485.7C169.044 485.92 168.921 486.194 168.921 486.523C168.921 486.889 169.062 487.182 169.343 487.402C169.636 487.609 170.033 487.713 170.533 487.713C171.009 487.713 171.437 487.603 171.815 487.384C172.194 487.152 172.469 486.816 172.639 486.377L173.079 487.695C172.872 488.329 172.493 488.811 171.943 489.14C171.394 489.47 170.686 489.634 169.819 489.634ZM180.626 489.488V481.327L181.267 481.985H177.293V479.643H186.798V481.985H182.823L183.464 481.327V489.488H180.626ZM194.193 482.791C195.487 482.802 196.469 483.095 197.141 483.669C197.824 484.23 198.167 485.029 198.167 486.066C198.167 487.152 197.782 487.999 197.013 488.609C196.244 489.207 195.175 489.506 193.808 489.506L188.863 489.488V479.643H191.702V482.791H194.193ZM193.552 487.475C194.101 487.487 194.522 487.372 194.815 487.127C195.108 486.883 195.255 486.517 195.255 486.029C195.255 485.542 195.108 485.194 194.815 484.986C194.522 484.767 194.101 484.651 193.552 484.639L191.702 484.62V487.475H193.552Z" fill="black"/>
<path d="M72.7631 195.236V188.504H69.1086L69.0491 190.252C69.0253 190.839 68.9856 191.403 68.93 191.941C68.8824 192.48 68.811 192.968 68.7158 193.404C68.6205 193.833 68.4856 194.186 68.311 194.463C68.1444 194.74 67.9301 194.911 67.6682 194.974L66.3826 194.76C66.6921 194.784 66.946 194.681 67.1444 194.451C67.3507 194.213 67.5095 193.884 67.6206 193.464C67.7396 193.036 67.8269 192.54 67.8825 191.977C67.9381 191.406 67.9777 190.796 68.0015 190.145L68.0848 187.469H73.9416V195.236H72.7631ZM66.085 197.615L66.0969 194.76H75.1678V197.615H74.0607V195.795H67.2039L67.192 197.615H66.085ZM80.5449 195.866C80.0211 195.866 79.541 195.748 79.1045 195.51C78.676 195.264 78.3308 194.903 78.0689 194.427C77.815 193.952 77.688 193.357 77.688 192.643C77.688 191.93 77.811 191.335 78.057 190.859C78.311 190.383 78.6522 190.026 79.0807 189.789C79.5172 189.551 80.0053 189.432 80.5449 189.432C81.1639 189.432 81.7115 189.566 82.1877 189.836C82.6639 190.106 83.0408 190.482 83.3186 190.966C83.5964 191.442 83.7352 192.001 83.7352 192.643C83.7352 193.285 83.5964 193.848 83.3186 194.332C83.0408 194.816 82.6639 195.192 82.1877 195.462C81.7115 195.732 81.1639 195.866 80.5449 195.866ZM77.1999 198.103V189.491H78.2951V191.192L78.2236 192.655L78.3427 194.118V198.103H77.1999ZM80.4497 194.867C80.8544 194.867 81.2156 194.776 81.533 194.594C81.8584 194.412 82.1123 194.154 82.2948 193.821C82.4853 193.479 82.5805 193.087 82.5805 192.643C82.5805 192.191 82.4853 191.802 82.2948 191.478C82.1123 191.145 81.8584 190.887 81.533 190.704C81.2156 190.522 80.8544 190.431 80.4497 190.431C80.0529 190.431 79.6919 190.522 79.3664 190.704C79.049 190.887 78.795 191.145 78.6046 191.478C78.4221 191.802 78.3308 192.191 78.3308 192.643C78.3308 193.087 78.4221 193.479 78.6046 193.821C78.795 194.154 79.049 194.412 79.3664 194.594C79.6919 194.776 80.0529 194.867 80.4497 194.867ZM86.1378 198.174C85.8363 198.174 85.5426 198.123 85.2569 198.019C84.9712 197.924 84.7252 197.781 84.5189 197.591L85.0069 196.735C85.1656 196.886 85.3403 197 85.5307 197.08C85.7212 197.159 85.9236 197.199 86.1378 197.199C86.4156 197.199 86.6458 197.127 86.8283 196.985C87.0108 196.842 87.1814 196.588 87.3401 196.223L87.733 195.355L87.852 195.212L90.3281 189.491H91.447L88.3877 196.425C88.2052 196.869 87.9988 197.219 87.7687 197.472C87.5464 197.726 87.3005 197.904 87.0306 198.007C86.7608 198.118 86.4632 198.174 86.1378 198.174ZM87.6377 195.997L84.757 189.491H85.9474L88.3996 195.105L87.6377 195.997ZM94.9065 195.878C95.4615 195.878 95.9541 195.799 96.3826 195.64C96.8185 195.474 97.1637 195.248 97.4183 194.963C97.672 194.669 97.7992 194.332 97.7992 193.952C97.7992 193.476 97.5969 193.099 97.1921 192.822C96.7874 192.544 96.2316 192.405 95.5256 192.405L95.4779 192.679C95.89 192.679 96.2554 192.611 96.5731 192.477C96.8899 192.342 97.1445 192.159 97.335 191.93C97.5254 191.692 97.6207 191.422 97.6207 191.121C97.6207 190.764 97.4934 190.455 97.2397 190.193C96.9934 189.931 96.6564 189.733 96.2279 189.598C95.7994 189.456 95.3113 189.392 94.7637 189.408C94.3983 189.416 94.0293 189.471 93.6566 189.575C93.2913 189.67 92.9186 189.809 92.5376 189.991L92.8471 190.883C93.1878 190.716 93.5211 190.594 93.8471 190.514C94.1804 190.435 94.5055 190.392 94.8232 190.383C95.1483 190.383 95.4303 190.419 95.6684 190.49C95.9138 190.562 96.1043 190.665 96.2398 190.8C96.3744 190.934 96.4422 191.097 96.4422 191.287C96.4422 191.462 96.3827 191.617 96.2636 191.751C96.1519 191.878 95.9935 191.973 95.7875 192.037C95.5805 192.1 95.3388 192.132 95.0613 192.132H93.9899V192.952H95.1327C95.6006 192.952 95.966 193.032 96.2279 193.19C96.4898 193.349 96.6207 193.575 96.6207 193.868C96.6207 194.074 96.5493 194.257 96.4065 194.415C96.2636 194.566 96.0567 194.685 95.7875 194.772C95.5256 194.859 95.2115 194.903 94.847 194.903C94.4496 194.903 94.0568 194.852 93.6685 194.748C93.2794 194.638 92.9341 194.487 92.6329 194.296L92.2876 195.165C92.6448 195.394 93.0495 195.573 93.5019 195.7C93.9615 195.819 94.4304 195.878 94.9065 195.878ZM103.048 191.632C103.849 191.64 104.461 191.822 104.881 192.179C105.302 192.536 105.512 193.039 105.512 193.69C105.512 194.371 105.282 194.899 104.822 195.272C104.361 195.637 103.711 195.815 102.869 195.807L100.132 195.795V189.491H101.274V191.62L103.048 191.632ZM102.774 194.939C103.29 194.947 103.679 194.844 103.941 194.629C104.211 194.415 104.346 194.098 104.346 193.678C104.346 193.265 104.215 192.964 103.953 192.774C103.691 192.584 103.298 192.485 102.774 192.477L101.274 192.453V194.927L102.774 194.939ZM111.156 195.795V193.583L111.334 193.797H109.322C108.482 193.797 107.822 193.618 107.346 193.262C106.878 192.905 106.644 192.385 106.644 191.704C106.644 190.974 106.894 190.423 107.394 190.05C107.902 189.678 108.577 189.491 109.418 189.491H112.179V195.795H111.156ZM106.584 195.795L108.299 193.381H109.477L107.811 195.795H106.584ZM111.156 193.226V190.169L111.334 190.49H109.453C108.93 190.49 108.525 190.589 108.239 190.788C107.953 190.978 107.811 191.295 107.811 191.739C107.811 192.564 108.343 192.976 109.406 192.976H111.334L111.156 193.226Z" fill="black"/>
<path d="M240.371 198.54H172.609C171.85 198.54 171.235 199.154 171.235 199.912C171.235 200.67 171.85 201.285 172.609 201.285H240.371C241.129 201.285 241.744 200.67 241.744 199.912C241.744 199.154 241.129 198.54 240.371 198.54Z" fill="#454545"/>
<path d="M265.552 218.668H36.6279C31.5707 218.668 27.4709 222.765 27.4709 227.818V235.137C27.4709 240.19 31.5707 244.287 36.6279 244.287H265.552C270.61 244.287 274.709 240.19 274.709 235.137V227.818C274.709 222.765 270.61 218.668 265.552 218.668Z" fill="#D9D9D9"/>
<path d="M45.251 235.137V226.811H46.2271L49.965 233.103H49.4412L53.1315 226.811H54.1076L54.1195 235.137H52.9767L52.9648 228.607H53.2386L49.9531 234.126H49.4055L46.0962 228.607H46.3938V235.137H45.251ZM59.8203 235.209C59.1853 235.209 58.6219 235.069 58.1299 234.792C57.6378 234.515 57.249 234.134 56.9633 233.65C56.6776 233.159 56.5348 232.604 56.5348 231.985C56.5348 231.358 56.6776 230.804 56.9633 230.32C57.249 229.836 57.6378 229.46 58.1299 229.19C58.6219 228.913 59.1853 228.774 59.8203 228.774C60.4472 228.774 61.0067 228.913 61.4987 229.19C61.9987 229.46 62.3875 229.836 62.6653 230.32C62.951 230.796 63.0939 231.351 63.0939 231.985C63.0939 232.612 62.951 233.166 62.6653 233.65C62.3875 234.134 61.9987 234.515 61.4987 234.792C61.0067 235.069 60.4472 235.209 59.8203 235.209ZM59.8203 234.209C60.225 234.209 60.5861 234.118 60.9035 233.936C61.2289 233.754 61.4828 233.496 61.6654 233.163C61.8479 232.821 61.9392 232.429 61.9392 231.985C61.9392 231.533 61.8479 231.144 61.6654 230.82C61.4828 230.487 61.2289 230.229 60.9035 230.046C60.5861 229.864 60.225 229.773 59.8203 229.773C59.4155 229.773 59.0544 229.864 58.737 230.046C58.4195 230.229 58.1656 230.487 57.9751 230.82C57.7847 231.144 57.6894 231.533 57.6894 231.985C57.6894 232.429 57.7847 232.821 57.9751 233.163C58.1656 233.496 58.4195 233.754 58.737 233.936C59.0544 234.118 59.4155 234.209 59.8203 234.209ZM65.3393 235.137V228.833H66.4821V231.509H70.0771V228.833H71.2199V235.137H70.0771V232.497H66.4821V235.137H65.3393ZM76.7393 235.209C76.1045 235.209 75.5411 235.069 75.049 234.792C74.557 234.515 74.1681 234.134 73.8824 233.65C73.5967 233.159 73.4538 232.604 73.4538 231.985C73.4538 231.358 73.5967 230.804 73.8824 230.32C74.1681 229.836 74.557 229.46 75.049 229.19C75.5411 228.913 76.1045 228.774 76.7393 228.774C77.3663 228.774 77.9258 228.913 78.4178 229.19C78.9178 229.46 79.3067 229.836 79.5844 230.32C79.8701 230.796 80.013 231.351 80.013 231.985C80.013 232.612 79.8701 233.166 79.5844 233.65C79.3067 234.134 78.9178 234.515 78.4178 234.792C77.9258 235.069 77.3663 235.209 76.7393 235.209ZM76.7393 234.209C77.1441 234.209 77.5052 234.118 77.8226 233.936C78.1481 233.754 78.402 233.496 78.5845 233.163C78.7671 232.821 78.8583 232.429 78.8583 231.985C78.8583 231.533 78.7671 231.144 78.5845 230.82C78.402 230.487 78.1481 230.229 77.8226 230.046C77.5052 229.864 77.1441 229.773 76.7393 229.773C76.3346 229.773 75.9735 229.864 75.6561 230.046C75.3387 230.229 75.0847 230.487 74.8942 230.82C74.7037 231.144 74.6085 231.533 74.6085 231.985C74.6085 232.429 74.7037 232.821 74.8942 233.163C75.0847 233.496 75.3387 233.754 75.6561 233.936C75.9735 234.118 76.3346 234.209 76.7393 234.209ZM82.2584 235.137V228.833H88.1033V235.137H86.9605V229.547L87.2343 229.832H83.1274L83.4012 229.547V235.137H82.2584ZM93.6117 235.209C92.9771 235.209 92.414 235.069 91.9213 234.792C91.4296 234.515 91.0407 234.134 90.755 233.65C90.4693 233.159 90.3265 232.604 90.3265 231.985C90.3265 231.358 90.4693 230.804 90.755 230.32C91.0407 229.836 91.4296 229.46 91.9213 229.19C92.414 228.913 92.9771 228.774 93.6117 228.774C94.239 228.774 94.7985 228.913 95.2902 229.19C95.7902 229.46 96.1793 229.836 96.4568 230.32C96.7425 230.796 96.8853 231.351 96.8853 231.985C96.8853 232.612 96.7425 233.166 96.4568 233.65C96.1793 234.134 95.7902 234.515 95.2902 234.792C94.7985 235.069 94.239 235.209 93.6117 235.209ZM93.6117 234.209C94.0165 234.209 94.3782 234.118 94.695 233.936C95.021 233.754 95.2746 233.496 95.4568 233.163C95.64 232.821 95.7306 232.429 95.7306 231.985C95.7306 231.533 95.64 231.144 95.4568 230.82C95.2746 230.487 95.021 230.229 94.695 230.046C94.3782 229.864 94.0165 229.773 93.6117 229.773C93.207 229.773 92.8462 229.864 92.5284 230.046C92.2116 230.229 91.957 230.487 91.7666 230.82C91.5761 231.144 91.4812 231.533 91.4812 231.985C91.4812 232.429 91.5761 232.821 91.7666 233.163C91.957 233.496 92.2116 233.754 92.5284 233.936C92.8462 234.118 93.207 234.209 93.6117 234.209ZM98.0373 235.125L98.1087 234.162C98.1636 234.17 98.2158 234.177 98.2635 234.186C98.3111 234.194 98.3541 234.198 98.3944 234.198C98.6481 234.198 98.8468 234.111 98.9896 233.936C99.1398 233.761 99.2515 233.531 99.3229 233.246C99.3943 232.952 99.4456 232.624 99.4777 232.259C99.5088 231.894 99.5326 231.53 99.5491 231.165L99.6562 228.833H104.501V235.137H103.358V229.499L103.632 229.832H100.394L100.656 229.487L100.573 231.236C100.549 231.791 100.505 232.31 100.442 232.794C100.378 233.278 100.279 233.702 100.144 234.067C100.017 234.432 99.8385 234.717 99.6086 234.923C99.3861 235.129 99.0967 235.232 98.7396 235.232C98.6362 235.232 98.5254 235.22 98.4063 235.197C98.2946 235.181 98.1719 235.157 98.0373 235.125ZM107.306 235.137V228.833H108.449V233.424L112.318 228.833H113.353V235.137H112.21V230.546L108.354 235.137H107.306ZM120.202 235.137V232.925L120.38 233.139H118.369C117.527 233.139 116.869 232.961 116.392 232.604C115.925 232.247 115.69 231.727 115.69 231.046C115.69 230.316 115.94 229.765 116.44 229.392C116.948 229.02 117.622 228.833 118.464 228.833H121.225V235.137H120.202ZM115.631 235.137L117.345 232.723H118.523L116.857 235.137H115.631ZM120.202 232.568V229.511L120.38 229.832H118.499C117.976 229.832 117.571 229.931 117.285 230.13C117 230.32 116.857 230.638 116.857 231.081C116.857 231.906 117.389 232.318 118.452 232.318H120.38L120.202 232.568Z" fill="black"/>
<path d="M126.371 230.238L127.236 229.351L133.135 235.1L132.27 235.987L126.371 230.238Z" fill="#2E2E2E"/>
<path d="M137.305 229.032L138.193 229.895L132.446 235.797L131.558 234.934L137.305 229.032Z" fill="#2E2E2E"/>
<path d="M265.552 314.736H36.6279C31.5707 314.736 27.4709 318.832 27.4709 323.885V331.205C27.4709 336.258 31.5707 340.354 36.6279 340.354H265.552C270.61 340.354 274.709 336.258 274.709 331.205V323.885C274.709 318.832 270.61 314.736 265.552 314.736Z" fill="#D9D9D9"/>
<path d="M50.8578 331.205L47.8342 327.101L48.7984 326.507L52.2149 331.205H50.8578ZM45.251 331.205V322.879H46.4176V331.205H45.251ZM46.0605 327.541V326.495H48.7627V327.541H46.0605ZM48.9055 327.173L47.8104 327.006L50.7983 322.879H52.072L48.9055 327.173ZM56.4606 331.276C55.8257 331.276 55.2623 331.137 54.7702 330.86C54.2782 330.583 53.8893 330.202 53.6036 329.718C53.3179 329.227 53.1751 328.671 53.1751 328.053C53.1751 327.426 53.3179 326.872 53.6036 326.388C53.8893 325.904 54.2782 325.528 54.7702 325.258C55.2623 324.981 55.8257 324.841 56.4606 324.841C57.0876 324.841 57.6471 324.981 58.1391 325.258C58.639 325.528 59.0279 325.904 59.3057 326.388C59.5914 326.863 59.7342 327.419 59.7342 328.053C59.7342 328.68 59.5914 329.234 59.3057 329.718C59.0279 330.202 58.639 330.583 58.1391 330.86C57.6471 331.137 57.0876 331.276 56.4606 331.276ZM56.4606 330.277C56.8653 330.277 57.2265 330.186 57.5438 330.003C57.8693 329.821 58.1232 329.563 58.3057 329.23C58.4883 328.889 58.5795 328.497 58.5795 328.053C58.5795 327.601 58.4883 327.212 58.3057 326.887C58.1232 326.554 57.8693 326.296 57.5438 326.114C57.2265 325.932 56.8653 325.841 56.4606 325.841C56.0558 325.841 55.6948 325.932 55.3773 326.114C55.0599 326.296 54.8059 326.554 54.6155 326.887C54.425 327.212 54.3298 327.601 54.3298 328.053C54.3298 328.497 54.425 328.889 54.6155 329.23C54.8059 329.563 55.0599 329.821 55.3773 330.003C55.6948 330.186 56.0558 330.277 56.4606 330.277ZM60.8856 331.193L60.957 330.229C61.0125 330.238 61.0642 330.245 61.1118 330.253C61.1594 330.261 61.203 330.265 61.2427 330.265C61.4966 330.265 61.6951 330.178 61.8379 330.003C61.9886 329.829 62.0998 329.599 62.1712 329.314C62.2427 329.02 62.2942 328.691 62.326 328.326C62.3577 327.961 62.3815 327.597 62.3974 327.232L62.5046 324.901H67.3495V331.205H66.2067V325.567L66.4805 325.9H63.2426L63.5045 325.555L63.4212 327.304C63.3974 327.859 63.3537 328.378 63.2902 328.862C63.2267 329.346 63.1275 329.769 62.9926 330.134C62.8656 330.499 62.6871 330.785 62.4569 330.991C62.2347 331.197 61.9451 331.3 61.5879 331.3C61.4847 331.3 61.3737 331.288 61.2546 331.264C61.1435 331.249 61.0205 331.225 60.8856 331.193ZM69.1068 331.193L69.1782 330.229C69.2338 330.238 69.2854 330.245 69.333 330.253C69.3806 330.261 69.4243 330.265 69.4639 330.265C69.7179 330.265 69.9163 330.178 70.0592 330.003C70.21 329.829 70.321 329.599 70.3925 329.314C70.4639 329.02 70.5154 328.691 70.5472 328.326C70.579 327.961 70.6028 327.597 70.6186 327.232L70.7258 324.901H75.5707V331.205H74.4279V325.567L74.7017 325.9H71.4638L71.7257 325.555L71.6424 327.304C71.6186 327.859 71.5749 328.378 71.5114 328.862C71.448 329.346 71.3487 329.769 71.2138 330.134C71.0868 330.499 70.9083 330.785 70.6782 330.991C70.4559 331.197 70.1663 331.3 69.8092 331.3C69.706 331.3 69.5949 331.288 69.4758 331.264C69.3648 331.249 69.2417 331.225 69.1068 331.193ZM81.185 331.276C80.5105 331.276 79.9153 331.137 79.3994 330.86C78.8915 330.583 78.4946 330.202 78.209 329.718C77.9312 329.234 77.7923 328.68 77.7923 328.053C77.7923 327.426 77.9273 326.872 78.197 326.388C78.4749 325.904 78.8518 325.528 79.3279 325.258C79.8121 324.981 80.3557 324.841 80.9588 324.841C81.5699 324.841 82.1095 324.976 82.5777 325.246C83.046 325.516 83.411 325.896 83.6729 326.388C83.9428 326.872 84.0777 327.438 84.0777 328.089C84.0777 328.136 84.0737 328.192 84.0657 328.255C84.0657 328.318 84.0618 328.378 84.0538 328.433H78.6851V327.613H83.4586L82.9944 327.898C83.0024 327.494 82.919 327.133 82.7444 326.816C82.5699 326.498 82.3278 326.253 82.0183 326.078C81.7167 325.896 81.3635 325.805 80.9588 325.805C80.562 325.805 80.2088 325.896 79.8993 326.078C79.5898 326.253 79.3478 326.503 79.1732 326.828C78.9986 327.145 78.9113 327.509 78.9113 327.922V328.112C78.9113 328.532 79.0065 328.909 79.197 329.242C79.3954 329.567 79.6692 329.821 80.0184 330.003C80.3676 330.186 80.7683 330.277 81.2207 330.277C81.5937 330.277 81.931 330.214 82.2325 330.087C82.542 329.96 82.8119 329.769 83.042 329.516L83.6729 330.253C83.3872 330.586 83.0301 330.84 82.6016 331.014C82.181 331.189 81.7087 331.276 81.185 331.276ZM86.4457 331.205V324.901H91.0883V325.9H87.3147L87.5885 325.638V331.205H86.4457ZM92.8535 331.205V324.901H93.9963V329.492L97.8651 324.901H98.9008V331.205H97.758V326.614L93.9011 331.205H92.8535Z" fill="black"/>
<path d="M260.516 333.263C263.424 333.263 265.781 330.908 265.781 328.003C265.781 325.097 263.424 322.742 260.516 322.742C257.608 322.742 255.251 325.097 255.251 328.003C255.251 330.908 257.608 333.263 260.516 333.263Z" stroke="black" stroke-opacity="0.5" stroke-width="1.5"/>
<path d="M103.479 326.305L104.343 325.419L110.243 331.168L109.377 332.055L103.479 326.305Z" fill="#2E2E2E"/>
<path d="M114.413 325.099L115.301 325.962L109.554 331.864L108.666 331.002L114.413 325.099Z" fill="#2E2E2E"/>
<path d="M265.552 282.714H36.6279C31.5707 282.714 27.4709 286.81 27.4709 291.863V299.182C27.4709 304.235 31.5707 308.332 36.6279 308.332H265.552C270.61 308.332 274.709 304.235 274.709 299.182V291.863C274.709 286.81 270.61 282.714 265.552 282.714Z" fill="#D9D9D9"/>
<path d="M45.251 299.182V290.856H52.4291V299.182H51.2625V291.582L51.5482 291.891H46.1319L46.4295 291.582V299.182H45.251ZM58.1347 299.254C57.4997 299.254 56.9363 299.115 56.4443 298.837C55.9522 298.56 55.5634 298.18 55.2777 297.696C54.992 297.204 54.8491 296.649 54.8491 296.03C54.8491 295.404 54.992 294.849 55.2777 294.365C55.5634 293.881 55.9522 293.505 56.4443 293.235C56.9363 292.958 57.4997 292.819 58.1347 292.819C58.7615 292.819 59.321 292.958 59.8131 293.235C60.3131 293.505 60.7019 293.881 60.9797 294.365C61.2654 294.841 61.4083 295.396 61.4083 296.03C61.4083 296.657 61.2654 297.212 60.9797 297.696C60.7019 298.18 60.3131 298.56 59.8131 298.837C59.321 299.115 58.7615 299.254 58.1347 299.254ZM58.1347 298.255C58.5394 298.255 58.9005 298.163 59.2179 297.981C59.5433 297.799 59.7972 297.541 59.9798 297.208C60.1623 296.867 60.2536 296.474 60.2536 296.03C60.2536 295.578 60.1623 295.19 59.9798 294.865C59.7972 294.532 59.5433 294.274 59.2179 294.092C58.9005 293.91 58.5394 293.818 58.1347 293.818C57.7299 293.818 57.3688 293.91 57.0514 294.092C56.7339 294.274 56.48 294.532 56.2895 294.865C56.0991 295.19 56.0038 295.578 56.0038 296.03C56.0038 296.474 56.0991 296.867 56.2895 297.208C56.48 297.541 56.7339 297.799 57.0514 297.981C57.3688 298.163 57.7299 298.255 58.1347 298.255ZM68.2248 299.182L65.7845 296.114L66.7249 295.543L69.57 299.182H68.2248ZM63.6537 299.182V292.878H64.7965V299.182H63.6537ZM64.4512 296.518V295.543H66.5344V296.518H64.4512ZM66.8201 296.161L65.7607 296.018L68.1772 292.878H69.4033L66.8201 296.161ZM73.9635 299.254C73.2889 299.254 72.6937 299.115 72.1779 298.837C71.67 298.56 71.2732 298.18 70.9875 297.696C70.7098 297.212 70.5708 296.657 70.5708 296.03C70.5708 295.404 70.7057 294.849 70.9756 294.365C71.2533 293.881 71.6303 293.505 72.1065 293.235C72.5906 292.958 73.1342 292.819 73.7373 292.819C74.3484 292.819 74.8881 292.953 75.3563 293.223C75.8245 293.493 76.1896 293.874 76.4515 294.365C76.7213 294.849 76.8562 295.416 76.8562 296.066C76.8562 296.114 76.8523 296.169 76.8443 296.233C76.8443 296.296 76.8403 296.355 76.8324 296.411H71.4636V295.59H76.2372L75.7729 295.876C75.7809 295.471 75.6976 295.111 75.5229 294.793C75.3483 294.476 75.1063 294.231 74.7968 294.056C74.4952 293.874 74.1421 293.782 73.7373 293.782C73.3406 293.782 72.9874 293.874 72.6779 294.056C72.3684 294.231 72.1263 294.48 71.9517 294.805C71.7771 295.123 71.6898 295.487 71.6898 295.9V296.09C71.6898 296.51 71.7851 296.887 71.9755 297.22C72.174 297.545 72.4477 297.799 72.7969 297.981C73.1461 298.163 73.5469 298.255 73.9992 298.255C74.3722 298.255 74.7095 298.191 75.0111 298.064C75.3206 297.937 75.5904 297.747 75.8205 297.493L76.4515 298.231C76.1658 298.564 75.8086 298.817 75.3801 298.992C74.9595 299.167 74.4873 299.254 73.9635 299.254ZM82.5693 299.254C82.0455 299.254 81.5653 299.135 81.1289 298.897C80.7004 298.651 80.3552 298.29 80.0933 297.815C79.8393 297.339 79.7123 296.744 79.7123 296.03C79.7123 295.317 79.8353 294.722 80.0814 294.246C80.3353 293.771 80.6766 293.414 81.1051 293.176C81.5415 292.938 82.0296 292.819 82.5693 292.819C83.1883 292.819 83.7359 292.953 84.2121 293.223C84.6882 293.493 85.0651 293.869 85.343 294.353C85.6207 294.829 85.7596 295.388 85.7596 296.03C85.7596 296.673 85.6207 297.235 85.343 297.719C85.0651 298.203 84.6882 298.579 84.2121 298.849C83.7359 299.119 83.1883 299.254 82.5693 299.254ZM79.2243 301.49V292.878H80.3194V294.579L80.248 296.042L80.3671 297.505V301.49H79.2243ZM82.4741 298.255C82.8788 298.255 83.2399 298.163 83.5574 297.981C83.8827 297.799 84.1366 297.541 84.3192 297.208C84.5097 296.867 84.6049 296.474 84.6049 296.03C84.6049 295.578 84.5097 295.19 84.3192 294.865C84.1366 294.532 83.8827 294.274 83.5574 294.092C83.2399 293.91 82.8788 293.818 82.4741 293.818C82.0772 293.818 81.7162 293.91 81.3908 294.092C81.0733 294.274 80.8194 294.532 80.629 294.865C80.4464 295.19 80.3552 295.578 80.3552 296.03C80.3552 296.474 80.4464 296.867 80.629 297.208C80.8194 297.541 81.0733 297.799 81.3908 297.981C81.7162 298.163 82.0772 298.255 82.4741 298.255Z" fill="black"/>
<path d="M90.6582 294.283L91.5233 293.396L97.4228 299.146L96.5575 300.032L90.6582 294.283Z" fill="#2E2E2E"/>
<path d="M101.593 293.077L102.481 293.94L96.7344 299.842L95.8462 298.979L101.593 293.077Z" fill="#2E2E2E"/>
<path d="M265.552 250.691H36.6279C31.5707 250.691 27.4709 254.787 27.4709 259.84V267.16C27.4709 272.213 31.5707 276.309 36.6279 276.309H265.552C270.61 276.309 274.709 272.213 274.709 267.16V259.84C274.709 254.787 270.61 250.691 265.552 250.691Z" fill="#D9D9D9"/>
<path d="M49.0008 267.255C48.3659 267.255 47.7746 267.148 47.2271 266.934C46.6874 266.72 46.2192 266.422 45.8224 266.042C45.4256 265.653 45.1161 265.201 44.8939 264.686C44.6716 264.171 44.5605 263.607 44.5605 262.997C44.5605 262.386 44.6716 261.823 44.8939 261.308C45.1161 260.793 45.4256 260.344 45.8224 259.964C46.2192 259.575 46.6874 259.274 47.2271 259.06C47.7667 258.846 48.3579 258.739 49.0008 258.739C49.6356 258.739 50.2189 258.846 50.7507 259.06C51.2903 259.266 51.7586 259.563 52.1553 259.952C52.5601 260.332 52.8696 260.781 53.0839 261.296C53.3061 261.811 53.4172 262.378 53.4172 262.997C53.4172 263.615 53.3061 264.182 53.0839 264.698C52.8696 265.213 52.5601 265.665 52.1553 266.054C51.7586 266.434 51.2903 266.731 50.7507 266.946C50.2189 267.151 49.6356 267.255 49.0008 267.255ZM49.0008 266.196C49.4611 266.196 49.8856 266.117 50.2745 265.958C50.6713 265.8 51.0126 265.578 51.2983 265.292C51.5919 264.999 51.8181 264.658 51.9768 264.269C52.1434 263.881 52.2268 263.457 52.2268 262.997C52.2268 262.537 52.1434 262.113 51.9768 261.724C51.8181 261.335 51.5919 260.999 51.2983 260.713C51.0126 260.419 50.6713 260.193 50.2745 260.035C49.8856 259.877 49.4611 259.797 49.0008 259.797C48.5326 259.797 48.1 259.877 47.7032 260.035C47.3143 260.193 46.9731 260.419 46.6795 260.713C46.3858 260.999 46.1557 261.335 45.989 261.724C45.8303 262.113 45.751 262.537 45.751 262.997C45.751 263.457 45.8303 263.881 45.989 264.269C46.1557 264.658 46.3858 264.999 46.6795 265.292C46.9731 265.578 47.3143 265.8 47.7032 265.958C48.1 266.117 48.5326 266.196 49.0008 266.196ZM59.8579 266.624V261.855H57.12L57.0605 263.068C57.0446 263.464 57.0168 263.849 56.9771 264.222C56.9454 264.587 56.8899 264.924 56.8105 265.233C56.7391 265.542 56.6319 265.796 56.4891 265.994C56.3462 266.193 56.1558 266.315 55.9177 266.363L54.7868 266.161C55.0328 266.169 55.2312 266.089 55.382 265.923C55.5328 265.748 55.6478 265.51 55.7272 265.209C55.8145 264.908 55.878 264.567 55.9177 264.186C55.9573 263.797 55.9891 263.397 56.0129 262.985L56.1081 260.856H61.0007V266.624H59.8579ZM54.5368 268.623V266.161H61.9649V268.623H60.8936V267.16H55.6201V268.623H54.5368ZM64.0489 267.16V260.856H65.1917V263.532H68.7867V260.856H69.9295V267.16H68.7867V264.519H65.1917V267.16H64.0489ZM75.4491 267.231C74.8141 267.231 74.2507 267.092 73.7587 266.815C73.2666 266.538 72.8778 266.157 72.5921 265.673C72.3064 265.182 72.1635 264.626 72.1635 264.008C72.1635 263.381 72.3064 262.827 72.5921 262.343C72.8778 261.859 73.2666 261.483 73.7587 261.213C74.2507 260.935 74.8141 260.796 75.4491 260.796C76.0759 260.796 76.6354 260.935 77.1275 261.213C77.6275 261.483 78.0163 261.859 78.2941 262.343C78.5798 262.818 78.7227 263.374 78.7227 264.008C78.7227 264.634 78.5798 265.189 78.2941 265.673C78.0163 266.157 77.6275 266.538 77.1275 266.815C76.6354 267.092 76.0759 267.231 75.4491 267.231ZM75.4491 266.232C75.8538 266.232 76.2148 266.14 76.5323 265.958C76.8577 265.776 77.1116 265.518 77.2942 265.185C77.4767 264.844 77.568 264.451 77.568 264.008C77.568 263.556 77.4767 263.167 77.2942 262.842C77.1116 262.509 76.8577 262.251 76.5323 262.069C76.2148 261.887 75.8538 261.795 75.4491 261.795C75.0443 261.795 74.6832 261.887 74.3658 262.069C74.0483 262.251 73.7944 262.509 73.6039 262.842C73.4135 263.167 73.3182 263.556 73.3182 264.008C73.3182 264.451 73.4135 264.844 73.6039 265.185C73.7944 265.518 74.0483 265.776 74.3658 265.958C74.6832 266.14 75.0443 266.232 75.4491 266.232ZM80.9681 267.16V260.856H85.6106V261.855H81.837L82.1108 261.593V267.16H80.9681ZM90.7208 267.231C90.197 267.231 89.7169 267.112 89.2804 266.874C88.8518 266.628 88.5066 266.268 88.2447 265.792C87.9908 265.316 87.8638 264.721 87.8638 264.008C87.8638 263.294 87.9869 262.699 88.2328 262.224C88.4868 261.748 88.828 261.391 89.2566 261.153C89.6931 260.915 90.1812 260.796 90.7208 260.796C91.3398 260.796 91.8875 260.931 92.3636 261.201C92.8398 261.471 93.2171 261.847 93.4945 262.331C93.772 262.806 93.9112 263.365 93.9112 264.008C93.9112 264.65 93.772 265.213 93.4945 265.697C93.2171 266.181 92.8398 266.557 92.3636 266.827C91.8875 267.097 91.3398 267.231 90.7208 267.231ZM87.3757 269.467V260.856H88.4709V262.557L88.3995 264.02L88.5185 265.483V269.467H87.3757ZM90.6256 266.232C91.0303 266.232 91.3914 266.14 91.7089 265.958C92.034 265.776 92.2885 265.518 92.4708 265.185C92.6612 264.844 92.7565 264.451 92.7565 264.008C92.7565 263.556 92.6612 263.167 92.4708 262.842C92.2885 262.509 92.034 262.251 91.7089 262.069C91.3914 261.887 91.0303 261.795 90.6256 261.795C90.2288 261.795 89.8677 261.887 89.5423 262.069C89.2249 262.251 88.9709 262.509 88.7804 262.842C88.5979 263.167 88.5066 263.556 88.5066 264.008C88.5066 264.451 88.5979 264.844 88.7804 265.185C88.9709 265.518 89.2249 265.776 89.5423 265.958C89.8677 266.14 90.2288 266.232 90.6256 266.232ZM96.314 269.539C96.0118 269.539 95.7188 269.487 95.4331 269.384C95.1474 269.289 94.901 269.146 94.695 268.956L95.1831 268.099C95.3415 268.25 95.5164 268.365 95.7068 268.444C95.8973 268.524 96.0997 268.563 96.314 268.563C96.5914 268.563 96.8212 268.492 97.0044 268.349C97.1866 268.206 97.3569 267.953 97.5163 267.588L97.9091 266.72L98.0281 266.577L100.504 260.856H101.623L98.5638 267.79C98.3807 268.234 98.1747 268.583 97.9448 268.837C97.7223 269.09 97.476 269.269 97.2068 269.372C96.9366 269.483 96.639 269.539 96.314 269.539ZM97.8139 267.362L94.9331 260.856H96.1235L98.5757 266.47L97.8139 267.362ZM103.388 267.16V260.856H109.233V267.16H108.09V261.569L108.364 261.855H104.257L104.531 261.569V267.16H103.388ZM112.039 267.16V260.856H117.884V267.16H116.741V261.569L117.015 261.855H112.908L113.182 261.569V267.16H112.039ZM120.691 267.16V260.856H121.834V263.532H125.429V260.856H126.571V267.16H125.429V264.519H121.834V267.16H120.691ZM129.389 267.16V260.856H130.532V265.447L134.401 260.856H135.436V267.16H134.293V262.569L130.437 267.16H129.389ZM142.82 267.16L140.38 264.091L141.32 263.52L144.166 267.16H142.82ZM138.249 267.16V260.856H139.392V267.16H138.249ZM139.047 264.495V263.52H141.13V264.495H139.047ZM141.416 264.139L140.356 263.996L142.773 260.856H143.999L141.416 264.139ZM145.959 267.16V260.856H147.102V265.447L150.971 260.856H152.007V267.16H150.864V262.569L147.007 267.16H145.959Z" fill="black"/>
<path d="M260.516 269.218C263.424 269.218 265.781 266.863 265.781 263.957C265.781 261.052 263.424 258.697 260.516 258.697C257.608 258.697 255.251 261.052 255.251 263.957C255.251 266.863 257.608 269.218 260.516 269.218Z" stroke="black" stroke-opacity="0.5" stroke-width="1.5"/>
<path d="M156.589 262.26L157.453 261.374L163.353 267.123L162.488 268.01L156.589 262.26Z" fill="#2E2E2E"/>
<path d="M167.523 261.054L168.412 261.917L162.665 267.819L161.776 266.957L167.523 261.054Z" fill="#2E2E2E"/>
<path d="M260.516 237.196C263.424 237.196 265.781 234.84 265.781 231.935C265.781 229.029 263.424 226.674 260.516 226.674C257.608 226.674 255.251 229.029 255.251 231.935C255.251 234.84 257.608 237.196 260.516 237.196Z" stroke="black" stroke-width="1.5"/>
<path d="M260.516 235.137C262.286 235.137 263.721 233.703 263.721 231.935C263.721 230.166 262.286 228.733 260.516 228.733C258.746 228.733 257.311 230.166 257.311 231.935C257.311 233.703 258.746 235.137 260.516 235.137Z" fill="black"/>
<path d="M260.516 301.241C263.424 301.241 265.781 298.886 265.781 295.98C265.781 293.075 263.424 290.719 260.516 290.719C257.608 290.719 255.251 293.075 255.251 295.98C255.251 298.886 257.608 301.241 260.516 301.241Z" stroke="black" stroke-width="1.5"/>
<path d="M260.516 299.182C262.286 299.182 263.721 297.749 263.721 295.98C263.721 294.212 262.286 292.778 260.516 292.778C258.746 292.778 257.311 294.212 257.311 295.98C257.311 297.749 258.746 299.182 260.516 299.182Z" fill="black"/>
<path d="M47.6162 422.698H24.7238C22.1951 422.698 20.1453 424.746 20.1453 427.273V440.996C20.1453 443.523 22.1951 445.571 24.7238 445.571H47.6162C50.1448 445.571 52.1947 443.523 52.1947 440.996V427.273C52.1947 424.746 50.1448 422.698 47.6162 422.698Z" fill="#E6E6E6"/>
<path d="M34.2135 436.864V431.167H31.1212L31.0708 432.647C31.0507 433.144 31.0171 433.619 30.9701 434.076C30.9298 434.533 30.8694 434.945 30.7888 435.314C30.7082 435.676 30.594 435.975 30.4463 436.21C30.3053 436.445 30.124 436.588 29.9024 436.642L28.8146 436.461C29.0765 436.481 29.2913 436.394 29.4592 436.2C29.6337 435.998 29.7681 435.72 29.8621 435.364C29.9628 435.002 30.0367 434.583 30.0837 434.106C30.1307 433.623 30.1643 433.106 30.1844 432.556L30.255 430.292H35.2107V436.864H34.2135ZM28.5627 438.877L28.5728 436.461H36.2482V438.877H35.3114V437.337H29.5096L29.4995 438.877H28.5627ZM42.5105 436.864V431.167H39.4182L39.3678 432.647C39.3476 433.144 39.314 433.619 39.2671 434.076C39.2268 434.533 39.1663 434.945 39.0858 435.314C39.0052 435.676 38.891 435.975 38.7433 436.21C38.6023 436.445 38.421 436.588 38.1994 436.642L37.1115 436.461C37.3734 436.481 37.5883 436.394 37.7562 436.2C37.9308 435.998 38.065 435.72 38.1591 435.364C38.2598 435.002 38.3337 434.583 38.3807 434.106C38.4276 433.623 38.4613 433.106 38.4814 432.556L38.5519 430.292H43.5077V436.864H42.5105ZM36.8597 438.877L36.8698 436.461H44.5451V438.877H43.6084V437.337H37.8065L37.7965 438.877H36.8597Z" fill="black"/>
<path d="M84.2444 422.698H61.3519C58.8233 422.698 56.7734 424.746 56.7734 427.273V440.996C56.7734 443.523 58.8233 445.571 61.3519 445.571H84.2444C86.773 445.571 88.8229 443.523 88.8229 440.996V427.273C88.8229 424.746 86.773 422.698 84.2444 422.698Z" fill="#E6E6E6"/>
<path d="M64.5542 437.337V430.292H65.3802L68.543 435.616H68.0998L71.2223 430.292H72.0483L72.0583 437.337H71.0914L71.0813 431.812H71.313L68.5329 436.481H68.0696L65.2694 431.812H65.5212V437.337H64.5542ZM74.4545 437.337V430.292H75.2805L78.4433 435.616H78.0001L81.1227 430.292H81.9486L81.9587 437.337H80.9917L80.9816 431.812H81.2133L78.4332 436.481H77.9699L75.1697 431.812H75.4215V437.337H74.4545Z" fill="black"/>
<path d="M138.271 422.698H97.9799C95.4512 422.698 93.4014 424.746 93.4014 427.273V440.996C93.4014 443.523 95.4512 445.571 97.9799 445.571H138.271C140.799 445.571 142.849 443.523 142.849 440.996V427.273C142.849 424.746 140.799 422.698 138.271 422.698Z" fill="#E6E6E6"/>
<path d="M107.732 437.337V430.292H112.355L112.345 431.167H108.477L108.719 430.916L108.729 437.337H107.732ZM113.757 437.337V430.292H118.381L118.371 431.167H114.503L114.744 430.916L114.754 437.337H113.757ZM119.782 437.337V430.292H124.405L124.395 431.167H120.527L120.769 430.916L120.779 437.337H119.782ZM125.806 437.337V430.292H130.429L130.419 431.167H126.551L126.793 430.916L126.803 437.337H125.806Z" fill="black"/>
</g>
<defs>
<filter id="filter0_bd_33_207" x="25.4243" y="407.806" width="264.151" height="149.732" filterUnits="userSpaceOnUse" color-interpolation-filters="sRGB">
<feFlood flood-opacity="0" result="BackgroundImageFix"/>
<feGaussianBlur in="BackgroundImageFix" stdDeviation="23"/>
<feComposite in2="SourceAlpha" operator="in" result="effect1_backgroundBlur_33_207"/>
<feColorMatrix in="SourceAlpha" type="matrix" values="0 0 0 0 0 0 0 0 0 0 0 0 0 0 0 0 0 0 127 0" result="hardAlpha"/>
<feOffset dy="4"/>
<feGaussianBlur stdDeviation="15"/>
<feComposite in2="hardAlpha" operator="out"/>
<feColorMatrix type="matrix" values="0 0 0 0 1 0 0 0 0 1 0 0 0 0 1 0 0 0 0.54 0"/>
<feBlend mode="normal" in2="effect1_backgroundBlur_33_207" result="effect2_dropShadow_33_207"/>
<feBlend mode="normal" in="SourceGraphic" in2="effect2_dropShadow_33_207" result="shape"/>
</filter>
<clipPath id="clip0_33_207">
<rect width="315" height="527" fill="white"/>
</clipPath>
</defs>
</svg>
